<?xml version="1.0" standalone="no"?>
<!DOCTYPE svg PUBLIC "-//W3C//DTD SVG 20010904//EN"
"http://www.w3.org/TR/2001/REC-SVG-20010904/DTD/svg10.dtd"
[
 <!ATTLIST svg
  xmlns:xlink CDATA #FIXED "http://www.w3.org/1999/xlink">
]>
<!-- Created with Sodipodi ("http://www.sodipodi.com/") -->
<svg
   xml:space="preserve"
   width="54.45pt"
   height="9.97pt"
   id="svg1"
   sodipodi:version="0.28"
   xmlns="http://www.w3.org/2000/svg"
   xmlns:sodipodi="http://sodipodi.sourceforge.net/DTD/sodipodi-0.dtd"
   xmlns:xlink="http://www.w3.org/1999/xlink"
   sodipodi:docname="workrave-text.svg">
  <defs
     id="defs13" />
  <sodipodi:namedview
     id="base" />
  <g
     id="Layer_x0020_1"
     style="fill-rule:nonzero;clip-rule:nonzero;stroke:#000000;stroke-miterlimit:4;"
     transform="translate(0.311656,0.934972)">
    <g
       style="stroke:none;"
       id="g3">
      <path
         d="M6.172,8.969H5.563L4.623,3.734L1.828,8.969H1.219L0,0.266h1.547l0.656,5.203l2.719-5.203h0.656l0.805,5.172l2.508-5.172h1.656L6.172,8.969z"
         id="path4" />
      <path
         d="M9.627,6.5c0-1.134,0.346-2.091,1.037-2.873c0.691-0.782,1.566-1.173,2.625-1.173c0.809,0,1.432,0.21,1.869,0.63c0.438,0.421,0.656,1.018,0.656,1.792c0,1.157-0.342,2.129-1.025,2.915s-1.566,1.179-2.648,1.179c-0.793,0-1.41-0.212-1.852-0.636      S9.627,7.297,9.627,6.5z M11.158,6.427c0,0.893,0.384,1.338,1.15,1.338c0.607,0,1.089-0.282,1.443-0.845c0.354-0.563,0.531-1.23,0.531-2.002c0-0.842-0.384-1.263-1.15-1.263c-0.596,0-1.074,0.278-1.435,0.833s-0.54,1.202-0.54,1.938z"
         id="path5" />
      <path
         d="M21.135,4.059c-0.348-0.258-0.654-0.387-0.919-0.387c-0.378,0-0.725,0.165-1.04,0.495c-0.314,0.33-0.512,0.708-0.594,1.134L17.92,8.844h-1.471l1.172-6.281h1.47L18.99,3.109c0.52-0.438,1.094-0.656,1.723-0.656c0.16,0,0.447,0.037,0.861,0.111      l-0.439,1.494z"
         id="path6" />
      <path
         d="M25.873,8.844l-1.979-2.581l-0.242,0.206l-0.418,2.375h-1.471L23.295,0h1.455l-0.761,4.656l1.101-0.964c0.75-0.658,1.247-1.16,1.492-1.505l1.025,0.885c-0.172,0.211-1.033,1.005-2.584,2.38l2.584,3.392h-1.734z"
         id="path7" />
      <path
         style="fill:#FB0F0C;"
         d="M32.971,4.059c-0.348-0.258-0.654-0.387-0.919-0.387c-0.378,0-0.725,0.165-1.04,0.495C30.697,4.497,30.5,4.875,30.417,5.3l-0.662,3.543h-1.471l1.172-6.281h1.47l-0.101,0.547c0.52-0.438,1.094-0.656,1.723-0.656      c0.16,0,0.447,0.037,0.861,0.111l-0.439,1.494z"
         id="path8" />
      <path
         style="fill:#FB0F0C;"
         d="M39.021,6.594c-0.027,0.145-0.041,0.305-0.041,0.48c0,0.859,0.065,1.449,0.197,1.769h-0.919c-0.274,0-0.479-0.208-0.612-0.625c-0.497,0.5-1.116,0.75-1.858,0.75c-0.676,0-1.199-0.191-1.57-0.575c-0.371-0.383-0.556-0.917-0.556-1.601      c0-1.192,0.36-2.214,1.08-3.064c0.72-0.851,1.628-1.276,2.725-1.276c1.058,0,1.821,0.098,2.289,0.293l-0.734,3.848z M37.335,3.656c-0.651,0-1.172,0.313-1.56,0.938c-0.388,0.626-0.582,1.346-0.582,2.16c0,0.674,0.329,1.011,0.986,1.011      c0.417,0,0.782-0.259,1.094-0.777c0.311-0.518,0.592-1.59,0.842-3.215c-0.275-0.078-0.536-0.117-0.78-0.117z"
         id="path9" />
      <path
         style="fill:#FB0F0C;"
         d="M43.354,8.969h-0.531L40.9,2.563h1.531l1.056,3.816l2.21-3.816H47.4l-4.047,6.406z"
         id="path10" />
      <path
         style="fill:#FB0F0C;"
         d="M48.996,6.127c-0.008,0.102-0.012,0.189-0.012,0.264c0,0.438,0.13,0.773,0.39,1.008c0.259,0.234,0.619,0.352,1.08,0.352c0.246,0,0.529-0.067,0.849-0.202c0.32-0.135,0.572-0.286,0.755-0.454l-0.17,1.541      c-0.497,0.223-1.103,0.334-1.819,0.334c-0.774,0-1.402-0.244-1.883-0.733c-0.481-0.489-0.722-1.159-0.722-2.012c0-1.079,0.347-1.978,1.04-2.695c0.694-0.717,1.602-1.076,2.723-1.076c0.66,0,1.196,0.14,1.606,0.419c0.41,0.28,0.615,0.68,0.615,1.2      c0,0.708-0.306,1.264-0.916,1.667c-0.61,0.402-1.362,0.604-2.256,0.604c-0.437,0-0.864-0.072-1.281-0.217z M49.277,5.014c0.253,0.074,0.528,0.111,0.824,0.111c0.53,0,0.979-0.081,1.345-0.243s0.55-0.396,0.55-0.7c0-0.34-0.37-0.51-1.111-0.51      c-0.292,0-0.59,0.128-0.895,0.384s-0.542,0.575-0.713,0.958z"
         id="path11" />
    </g>
  </g>
</svg>
