<?xml version="1.0" encoding="UTF-8" standalone="no"?>
<!-- Created with Sodipodi ("http://www.sodipodi.com/") -->

<svg
   xmlns:dc="http://purl.org/dc/elements/1.1/"
   xmlns:cc="http://creativecommons.org/ns#"
   xmlns:rdf="http://www.w3.org/1999/02/22-rdf-syntax-ns#"
   xmlns:svg="http://www.w3.org/2000/svg"
   xmlns="http://www.w3.org/2000/svg"
   xmlns:xlink="http://www.w3.org/1999/xlink"
   xmlns:sodipodi="http://sodipodi.sourceforge.net/DTD/sodipodi-0.dtd"
   xmlns:inkscape="http://www.inkscape.org/namespaces/inkscape"
   width="96"
   height="96"
   id="svg19"
   sodipodi:version="0.28"
   sodipodi:docname="workrave.svg"
   version="1.1"
   inkscape:version="0.48.2 r9819">
  <metadata
     id="metadata31">
    <rdf:RDF>
      <cc:Work
         rdf:about="">
        <dc:format>image/svg+xml</dc:format>
        <dc:type
           rdf:resource="http://purl.org/dc/dcmitype/StillImage" />
      </cc:Work>
    </rdf:RDF>
  </metadata>
  <defs
     id="defs33">
    <linearGradient
       id="linearGradient45">
      <stop
         style="stop-color:#ffffff;stop-opacity:1;"
         offset="0.000000"
         id="stop46" />
      <stop
         style="stop-color:#ffffe3;stop-opacity:1;"
         offset="1.000000"
         id="stop47" />
    </linearGradient>
    <linearGradient
       id="linearGradient34">
      <stop
         style="stop-color:#ffcfe1;stop-opacity:1;"
         offset="0.000000"
         id="stop35" />
      <stop
         style="stop-color:#cc9cae;stop-opacity:1;"
         offset="1.000000"
         id="stop36" />
    </linearGradient>
    <linearGradient
       xlink:href="#linearGradient45"
       id="linearGradient37"
       x1="0.34434"
       y1="0.16406301"
       x2="0.74056602"
       y2="1.14063"
       gradientUnits="objectBoundingBox"
       spreadMethod="pad" />
    <linearGradient
       xlink:href="#linearGradient34"
       id="linearGradient38"
       x1="0.24180301"
       y1="0.071429104"
       x2="0.52868801"
       y2="0.63392901"
       gradientUnits="objectBoundingBox"
       spreadMethod="pad" />
    <linearGradient
       xlink:href="#linearGradient45"
       id="linearGradient39"
       x1="0.60714298"
       y1="0.21093699"
       x2="0.484694"
       y2="0.89843798"
       gradientUnits="objectBoundingBox"
       spreadMethod="pad" />
    <linearGradient
       xlink:href="#linearGradient45"
       id="linearGradient40"
       x1="0.56967199"
       y1="0.184211"
       x2="0.43852401"
       y2="0.64912301"
       gradientUnits="objectBoundingBox"
       spreadMethod="pad" />
    <radialGradient
       xlink:href="#linearGradient45"
       id="radialGradient41"
       cx="1.03795e-08"
       cy="1.88508e-08"
       fx="1.03795e-08"
       fy="1.88508e-08"
       r="0.76376301"
       gradientUnits="objectBoundingBox"
       gradientTransform="matrix(1.01659,0,0,0.983682,0.147058,0.414063)"
       spreadMethod="pad" />
    <radialGradient
       xlink:href="#linearGradient45"
       id="radialGradient42"
       cx="-3.6059599e-14"
       cy="1.2964099e-13"
       fx="-3.6059599e-14"
       fy="1.2964099e-13"
       r="0.76728302"
       gradientUnits="objectBoundingBox"
       gradientTransform="matrix(1.17706,0,0,0.849577,0.866336,0.695314)"
       spreadMethod="pad" />
    <radialGradient
       xlink:href="#linearGradient34"
       id="radialGradient43"
       cx="3.3878e-09"
       cy="-1.85092e-09"
       fx="3.3878e-09"
       fy="-1.85092e-09"
       r="0.94464499"
       gradientUnits="objectBoundingBox"
       gradientTransform="matrix(1.17119,0,0,0.853835,-0.0726344,0.390645)"
       spreadMethod="pad" />
    <linearGradient
       xlink:href="#linearGradient45"
       id="linearGradient44"
       x1="0"
       y1="0"
       x2="1"
       y2="0"
       gradientUnits="objectBoundingBox"
       spreadMethod="pad" />
    <radialGradient
       xlink:href="#linearGradient45"
       id="radialGradient48"
       cx="2.3239899e-26"
       cy="3.27678e-26"
       fx="2.3239899e-26"
       fy="3.27678e-26"
       r="1.31578"
       gradientUnits="objectBoundingBox"
       gradientTransform="matrix(1.0925,0,0,0.915332,0.229445,0.351504)"
       spreadMethod="pad" />
  </defs>
  <sodipodi:namedview
     id="base"
     showgrid="false"
     inkscape:zoom="1.3518519"
     inkscape:cx="-15.534247"
     inkscape:cy="77.375"
     inkscape:window-width="1280"
     inkscape:window-height="969"
     inkscape:window-x="0"
     inkscape:window-y="26"
     inkscape:window-maximized="1"
     inkscape:current-layer="svg19" />
  <path
     style="fill:#000000;stroke:none"
     d="m 31.646491,18.628324 c -5.190686,-0.609578 -8.733288,2.88036 -11.00985,7.3399 -3.145788,-4.374856 -6.911294,-6.77046 -12.2731823,-7.5923 -1.782908,-0.273228 -4.142776,-0.39952 -5.321198,1.274666 -1.303062,1.851214 0.457276,6.002202 1.671432,7.561104 0.842668,1.081948 1.860848,2.365328 3.125926,2.95743 1.819974,0.851886 3.8252343,0.507278 5.4571243,1.762768 -0.64137,-0.1891 -1.176908,-0.402226 -1.85516,-0.407044 -3.7320643,-0.02652 -3.3575003,3.566458 -5.1647663,5.911968 -2.835402,3.679904 -6.52697402,6.86799 -6.26346602,11.927335 0.294394,5.652182 5.63870402,10.729098 10.98967432,11.75485 2.498684,0.479386 5.261744,0.17248 7.798642,0.17248 l 0,0.458744 c -3.058306,0.15276 -6.566274,0.10596 -8.425378,1.35834 -1.0902043,2.087744 0.018,3.425898 0.42686,5.064072 -0.73587,0.334425 -1.7715763,0.568843 -2.2076583,1.402839 -0.965472,1.591842 -0.58187,3.083218 -0.04836,4.974158 0.415898,1.600558 1.343798,2.868524 2.4468483,4.051166 1.256728,1.04777 3.49581,0.611964 5.513962,0.319286 1.833966,-0.244052 5.032006,-1.042724 6.84496,-1.439538 3.769084,-0.900056 5.2589,-1.262004 9.21107,-1.11337 2.403356,0.08992 3.733776,2.12857 5.504936,3.490122 2.31394,1.778548 5.29574,2.915316 8.25738,2.584562 1.75056,-0.19542 3.269,-1.189524 4.50762,-2.387762 0.67022,-0.647746 1.28632,-1.68313 2.21986,-1.981314 1.25788,-0.40186 3.46214,0.758304 4.74112,1.017494 4.01124,0.813812 9.07348,0.0156 11.00984,-4.036486 l 9.63408,0.481222 4.58698,1.060156 c 3.51718,0.556456 8.76016,1.573492 9.97584,0.576642 1.30192,-0.656922 3.40984,-5.341612 2.92816,-8.875315 -0.47664,-1.247324 -1.47164,-1.517066 -2.81164,-1.958836 0.45874,-2.007004 1.26292,-4.474586 0.28304,-5.445288 -1.76846,-1.475778 -8.08168,-1.455136 -12.66912,-1.894612 2.45658,-2.882286 4.95352,-6.175608 3.45526,-10.092362 -0.67894,-1.774189 -2.26758,-3.244141 -2.75522,-5.046179 -0.66472,-2.45781 0.50784,-5.181464 -0.26102,-7.798642 -0.36838,-1.253794 -0.84318,-2.570066 -1.65378,-3.610818 -0.68398,-0.87799 -1.88864,-1.448254 -2.36298,-2.471804 -0.8239,-1.776668 0.66792,-3.89877 -0.0982,-5.844714 -1.89278,-4.808598 -9.78912,-7.176128 -14.21508,-5.046182 -1.60698,-5.572818 -12.90446,-7.013228 -14.04904,-4.153466 -1.6212,-1.344486 -2.89926,-1.445134 -4.30072,-1.252002 -1.42668,0.19662 -3.71412,1.075662 -4.75946,2.362758 -1.8186,-1.40614 -6.868592,-1.649182 -8.085364,2.583966 z"
     id="path21"
     sodipodi:nodetypes="cccccccccccccccccsccccccccccccccccccccccccccc"
     inkscape:connector-curvature="0" />
  <path
     style="fill:#ffffff;fill-opacity:1;fill-rule:nonzero;stroke:none"
     d="m 38.986387,19.545812 c -0.1646,-0.392684 -0.28644,-0.967032 -0.60742,-1.304024 -1.774,-1.862546 -3.90074,-0.3992 -5.051134,1.321732 -0.4409,0.659536 -0.87354,1.801302 -1.749282,1.997782 -0.812986,0.1824 -1.301226,-0.62013 -1.767036,-1.098002 -2.656904,0.5543 -5.60048,3.11565 -6.42241,5.963668 3.948314,0.1874 6.80404,-3.193728 11.009842,-2.283444 2.5254,0.546594 7.01324,2.448592 7.14842,5.496438 0.1156,2.604518 -2.83426,4.880666 -4.8547,6.033718 -2.50248,1.428208 -5.179762,0.278228 -7.798638,0.845648 0.912348,2.036914 3.077436,4.71607 3.25685,6.881156 0.31713,3.826152 -2.085128,6.484801 -3.571548,9.633617 -0.782296,1.656982 -0.221804,3.44746 -0.82863,5.114992 -0.931386,2.56025 -4.276132,2.935042 -6.655316,3.142394 0.355206,1.767082 1.435364,2.941006 2.062926,4.587438 0.396812,1.04089 0.379884,2.176738 0.817296,3.211207 1.677994,3.967674 4.810662,4.386966 8.588372,4.587436 0.583062,-0.74133 1.404448,-2.035446 2.556028,-1.41293 1.05314,0.569302 1.2104,2.313444 1.8424,3.241024 1.70868,2.50887 5.79164,4.847086 8.90514,4.35623 1.70378,-0.268824 3.55342,-1.2776 4.15118,-2.991468 0.37846,-1.083552 -0.48306,-3.42819 0.98584,-3.898862 1.3877,-0.444064 2.663,1.881766 3.62682,2.555202 2.09876,1.466146 4.82506,1.728088 7.29218,1.311548 1.40148,-0.23671 3.90758,-0.781698 4.43652,-2.341426 0.39176,-1.156952 -1.60514,-3.59701 0.26928,-4.144292 1.42578,-0.416538 2.57952,1.399168 3.59288,2.075816 2.16022,1.442748 5.99302,1.371184 8.0014,-0.362866 2.57586,-2.22399 3.83282,-6.913727 1.72718,-9.808859 -0.76978,-1.058322 -3.21672,-2.150132 -2.99422,-3.671784 0.1606,-1.09961 1.6212,-1.544592 2.37996,-2.130866 1.59138,-1.228974 2.86256,-3.168542 2.65384,-5.254908 -0.20552,-2.056044 -1.74828,-3.902625 -3.2259,-5.232385 -0.72618,-0.653756 -1.78956,-1.210074 -2.19738,-2.146462 -0.71104,-1.631612 1.18632,-2.075586 2.32996,-2.25477 0.45966,-3.110696 -0.2234,-6.743992 -3.25386,-8.400378 -1.63314,-0.892348 -3.70758,-1.051256 -5.46226,-1.691984 1.10786,-1.40348 3.15982,-2.161324 3.97592,-3.730824 2.21024,-4.25228 -5.55538,-6.984466 -8.64134,-6.71055 -1.14412,0.10156 -2.34602,1.074332 -3.48876,0.852714 -1.40696,-0.27277 -1.9515,-2.544284 -2.9589,-3.433834 -1.73726,-1.53459 -6.13156,-3.638894 -8.356,-2.033932 -0.92668,0.668618 -1.24916,2.117652 -1.63314,3.12909 -0.63444,-0.954554 -1.22668,-2.188574 -2.1148,-2.935088 -2.92082,-2.454188 -5.95004,1.304988 -7.97756,2.935088 z"
     id="path22"
     sodipodi:nodetypes="ccccccccccccccccccccccccccccccccccccccccccccc"
     inkscape:connector-curvature="0" />
  <path
     style="fill:#e6b5c7;fill-opacity:1;stroke:none"
     d="m 18.801667,29.17943 c -1.005246,-3.781012 -4.951588,-7.03612 -8.71613,-7.943422 -1.2697563,-0.306028 -4.0246963,-0.850144 -4.6805163,0.749358 -0.610542,1.488944 0.789222,3.320708 1.707168,4.361596 1.883418,2.135728 3.6620143,1.982002 6.1845543,2.563828 2.2261,0.513426 3.243822,1.067542 5.504924,0.26864 z"
     id="path23"
     inkscape:connector-curvature="0" />
  <path
     style="fill:#e6b5c7;fill-opacity:1;stroke:none"
     d="m 24.765335,29.17943 c 0.72275,1.587298 1.8219,3.541502 3.330158,4.52335 3.240152,2.109396 9.504934,1.837406 10.570914,-2.690164 1.07544,-4.56762 -6.498738,-5.477216 -9.313634,-4.434492 -1.651936,0.611918 -3.09042,1.696984 -4.587438,2.601306 z"
     id="path24"
     inkscape:connector-curvature="0" />
  <path
     style="fill:#e6b5c7;fill-opacity:1;stroke:none"
     d="m 21.013545,29.956082 1.38e-4,0.255246 c 1.38e-4,0.24318 1.932138,2.68099 1.19934,7.225488 -0.631966,2.231054 -1.863554,4.262234 -3.095144,6.393374 -0.63637,0.68206 -1.172778,1.164246 -2.508686,1.146768 -1.997508,-0.637516 -1.796486,-2.174354 -2.394962,-3.411448 -1.156814,0.722292 -2.610436,3.14923 -4.076306,2.921646 -1.6588163,-0.257538 -2.0530623,-3.710502 -4.0600203,-2.840954 -1.156262,0.500994 -2.587268,2.479464 -3.12776,3.530262 -2.92346402,5.683651 1.107684,11.869351 6.894598,13.602025 3.5997623,1.077132 7.9804883,1.39871 11.6076823,0.603708 1.265262,-0.277082 2.801824,-0.246346 3.944646,-1.288152 1.578492,-1.27439 1.211772,-4.596612 2.042372,-6.275614 1.225352,-2.476988 2.836964,-4.103553 2.986194,-7.041715 0.09304,-1.830664 -1.379534,-3.08684 -2.19353,-4.587438 -1.911676,-3.524206 -3.770644,-7.775706 -7.218562,-10.233196 z"
     id="path25"
     sodipodi:nodetypes="cscccccccccccccc"
     inkscape:connector-curvature="0" />
  <path
     style="fill:#ffffff;stroke:none"
     d="m 15.590461,40.648022 0.458744,0 c 1.21847,-0.830096 1.69391,-0.5165 2.752462,0.458744 1.635238,-1.763136 2.108386,-4.280996 1.58083,-6.219234 -2.335096,-3.502646 -4.376138,0.18982 -4.7602,2.09054 -0.256482,1.269436 -0.254602,2.41414 -0.03184,3.66995 z"
     id="path26"
     sodipodi:nodetypes="cccccc"
     inkscape:connector-curvature="0" />
  <path
     style="fill:#ffffff;stroke:none"
     d="m 8.7093047,40.189278 0.458744,0 c 1.2184703,-0.830142 1.6939123,-0.516498 2.7524623,0.458744 0.71665,-1.48789 3.024176,-7.621752 -0.457322,-7.41706 -2.7027803,0.1589 -2.7381943,5.086872 -2.7538843,6.958316 z"
     id="path27"
     inkscape:connector-curvature="0" />
  <path
     style="fill:#e6b5c7;fill-opacity:1;stroke:none"
     d="m 81.013267,60.545111 c 1.01566,1.127592 1.28312,2.197384 1.6657,3.66995 l 9.12854,1.652854 c 0.3014,-0.712888 1.2877,-2.904306 0.39178,-3.887394 -1.63818,-1.111536 -7.76424,-1.072084 -11.18602,-1.43541 z"
     id="path28"
     sodipodi:nodetypes="ccccc"
     inkscape:connector-curvature="0" />
  <path
     style="fill:#e6b5c7;fill-opacity:1;stroke:none"
     d="m 11.311851,64.034775 c -0.720366,1.345954 0.273686,2.032694 0.771332,3.579578 3.706786,-0.421586 7.039742,-1.170714 9.470946,-1.276684 l -1.49899,-3.51994 c -3.364106,0.305522 -7.627624,-0.13808 -8.743288,1.217046 z"
     id="path29"
     sodipodi:nodetypes="ccccc"
     inkscape:connector-curvature="0" />
  <path
     style="fill:#e6b5c7;fill-opacity:1;stroke:none"
     d="m 82.851467,65.648635 c 0.56012,2.579976 -1.41064,5.735215 -4.07274,8.142243 4.09016,1.23448 11.403,2.871736 13.07696,2.323078 1.64642,-0.710134 3.63738,-5.90816 2.752,-7.480732 -1.3487,-1.378527 -7.93306,-2.239129 -11.75622,-2.984589 z"
     id="path30"
     sodipodi:nodetypes="ccccc"
     inkscape:connector-curvature="0" />
  <path
     style="fill:#e6b5c7;fill-opacity:1;stroke:none"
     d="m 9.4678387,70.307638 c -0.757248,1.698728 0.17602,6.175148 2.4632243,7.467888 4.775338,0.497738 10.243426,-1.487246 15.018718,-2.721726 -2.650162,-1.910208 -4.707444,-3.94749 -4.936908,-7.189891 -4.281592,0.764267 -10.062176,0.629855 -12.5450343,2.443729 z"
     id="path31"
     sodipodi:nodetypes="ccccc"
     inkscape:connector-curvature="0" />
</svg>
