<?xml version="1.0" encoding="UTF-8" standalone="no"?>
<!-- Created with Sodipodi ("http://www.sodipodi.com/") -->

<svg
   xmlns:dc="http://purl.org/dc/elements/1.1/"
   xmlns:cc="http://creativecommons.org/ns#"
   xmlns:rdf="http://www.w3.org/1999/02/22-rdf-syntax-ns#"
   xmlns:svg="http://www.w3.org/2000/svg"
   xmlns="http://www.w3.org/2000/svg"
   xmlns:xlink="http://www.w3.org/1999/xlink"
   xmlns:sodipodi="http://sodipodi.sourceforge.net/DTD/sodipodi-0.dtd"
   xmlns:inkscape="http://www.inkscape.org/namespaces/inkscape"
   width="48"
   height="48"
   id="svg19"
   sodipodi:version="0.28"
   sodipodi:docname="workrave.svg"
   version="1.1"
   inkscape:version="0.48.2 r9819">
  <metadata
     id="metadata31">
    <rdf:RDF>
      <cc:Work
         rdf:about="">
        <dc:format>image/svg+xml</dc:format>
        <dc:type
           rdf:resource="http://purl.org/dc/dcmitype/StillImage" />
      </cc:Work>
    </rdf:RDF>
  </metadata>
  <defs
     id="defs33">
    <linearGradient
       id="linearGradient45">
      <stop
         style="stop-color:#ffffff;stop-opacity:1;"
         offset="0.000000"
         id="stop46" />
      <stop
         style="stop-color:#ffffe3;stop-opacity:1;"
         offset="1.000000"
         id="stop47" />
    </linearGradient>
    <linearGradient
       id="linearGradient34">
      <stop
         style="stop-color:#ffcfe1;stop-opacity:1;"
         offset="0.000000"
         id="stop35" />
      <stop
         style="stop-color:#cc9cae;stop-opacity:1;"
         offset="1.000000"
         id="stop36" />
    </linearGradient>
    <linearGradient
       xlink:href="#linearGradient45"
       id="linearGradient37"
       x1="0.34434"
       y1="0.16406301"
       x2="0.74056602"
       y2="1.14063"
       gradientUnits="objectBoundingBox"
       spreadMethod="pad" />
    <linearGradient
       xlink:href="#linearGradient34"
       id="linearGradient38"
       x1="0.24180301"
       y1="0.071429104"
       x2="0.52868801"
       y2="0.63392901"
       gradientUnits="objectBoundingBox"
       spreadMethod="pad" />
    <linearGradient
       xlink:href="#linearGradient45"
       id="linearGradient39"
       x1="0.60714298"
       y1="0.21093699"
       x2="0.484694"
       y2="0.89843798"
       gradientUnits="objectBoundingBox"
       spreadMethod="pad" />
    <linearGradient
       xlink:href="#linearGradient45"
       id="linearGradient40"
       x1="0.56967199"
       y1="0.184211"
       x2="0.43852401"
       y2="0.64912301"
       gradientUnits="objectBoundingBox"
       spreadMethod="pad" />
    <radialGradient
       xlink:href="#linearGradient45"
       id="radialGradient41"
       cx="1.03795e-08"
       cy="1.88508e-08"
       fx="1.03795e-08"
       fy="1.88508e-08"
       r="0.76376301"
       gradientUnits="objectBoundingBox"
       gradientTransform="matrix(1.01659,0,0,0.983682,0.147058,0.414063)"
       spreadMethod="pad" />
    <radialGradient
       xlink:href="#linearGradient45"
       id="radialGradient42"
       cx="-3.6059599e-14"
       cy="1.2964099e-13"
       fx="-3.6059599e-14"
       fy="1.2964099e-13"
       r="0.76728302"
       gradientUnits="objectBoundingBox"
       gradientTransform="matrix(1.17706,0,0,0.849577,0.866336,0.695314)"
       spreadMethod="pad" />
    <radialGradient
       xlink:href="#linearGradient34"
       id="radialGradient43"
       cx="3.3878e-09"
       cy="-1.85092e-09"
       fx="3.3878e-09"
       fy="-1.85092e-09"
       r="0.94464499"
       gradientUnits="objectBoundingBox"
       gradientTransform="matrix(1.17119,0,0,0.853835,-0.0726344,0.390645)"
       spreadMethod="pad" />
    <linearGradient
       xlink:href="#linearGradient45"
       id="linearGradient44"
       x1="0"
       y1="0"
       x2="1"
       y2="0"
       gradientUnits="objectBoundingBox"
       spreadMethod="pad" />
    <radialGradient
       xlink:href="#linearGradient45"
       id="radialGradient48"
       cx="2.3239899e-26"
       cy="3.27678e-26"
       fx="2.3239899e-26"
       fy="3.27678e-26"
       r="1.31578"
       gradientUnits="objectBoundingBox"
       gradientTransform="matrix(1.0925,0,0,0.915332,0.229445,0.351504)"
       spreadMethod="pad" />
  </defs>
  <sodipodi:namedview
     id="base"
     showgrid="false"
     units="px"
     inkscape:zoom="5.4074076"
     inkscape:cx="26.418548"
     inkscape:cy="20.071816"
     inkscape:window-width="1280"
     inkscape:window-height="969"
     inkscape:window-x="0"
     inkscape:window-y="26"
     inkscape:window-maximized="1"
     inkscape:current-layer="svg19"
     showborder="false" />
  <path
     style="fill:#000000;stroke:none"
     d="M 15.823243,7.4906747 C 13.227899,7.148041 11.456599,9.1096763 10.318318,11.616308 8.7454242,9.1572757 6.8626709,7.8107464 4.1817298,7.3488046 3.2902744,7.1952278 2.1103403,7.124241 1.521131,8.0652723 0.86960041,9.1058084 1.7497681,11.439008 2.3568456,12.315241 c 0.4213346,0.608144 0.930426,1.329511 1.5629645,1.662321 0.9099842,0.478832 1.9126153,0.285133 2.7285599,0.990822 C 6.3276867,14.862098 6.0599157,14.7423 5.7207893,14.739592 c -1.8660287,-0.0149 -1.6787475,2.004645 -2.5823801,3.323017 -1.4177026,2.068412 -3.26348667,3.86038 -3.13173463,6.704155 0.14719795,3.176991 2.81935333,6.030644 5.49483783,6.607201 1.2493423,0.269456 2.6308713,0.09695 3.8993203,0.09695 l 0,0.25785 c -1.5291534,0.08587 -3.2831371,0.05956 -4.2126883,0.763501 -0.5451022,1.173486 0.00904,1.925639 0.2134286,2.846428 -0.3679334,0.187976 -0.8857872,0.319737 -1.1038287,0.788513 -0.4827353,0.894747 -0.2909355,1.733024 -0.024165,2.795889 0.2079491,0.899646 0.6718982,1.612348 1.2234237,2.277091 0.6283631,0.588935 1.7479037,0.343977 2.7569808,0.179465 0.9169825,-0.137177 2.5160007,-0.586097 3.4224787,-0.809138 1.884544,-0.505905 2.62945,-0.709353 4.605534,-0.625809 1.20168,0.05054 1.866881,1.196435 2.752462,1.961738 1.156974,0.999694 2.647868,1.63865 4.128692,1.452739 0.875283,-0.109843 1.634503,-0.66861 2.253807,-1.342118 0.335113,-0.364087 0.643159,-0.946061 1.10993,-1.113664 0.628938,-0.225877 1.731069,0.426228 2.370557,0.571916 2.005629,0.457429 4.536746,0.0088 5.504925,-2.26884 l 4.817037,0.270488 2.29349,0.595895 c 1.758591,0.312773 4.380081,0.884432 4.987916,0.324121 0.650959,-0.369246 1.704921,-3.002431 1.464081,-4.988664 -0.238318,-0.7011 -0.735824,-0.852719 -1.405821,-1.101029 0.229373,-1.128103 0.631461,-2.515088 0.141525,-3.060705 -0.884229,-0.829509 -4.040844,-0.817907 -6.334562,-1.064927 1.228286,-1.620089 2.476756,-3.471208 1.727628,-5.672748 -0.33947,-0.997243 -1.133783,-1.823479 -1.377606,-2.836373 -0.33236,-1.381494 0.253916,-2.912413 -0.130513,-4.383485 C 40.40136,16.584317 40.16396,15.844463 39.758657,15.259474 39.416665,14.765971 38.814335,14.445435 38.577164,13.870115 38.165213,12.87148 38.911129,11.678682 38.528078,10.584899 37.581692,7.8820684 33.633514,6.5513198 31.420535,7.7485267 30.617045,4.6161388 24.968306,3.8065115 24.396023,5.4139351 23.585423,4.6582211 22.946394,4.6016481 22.245663,4.7102041 21.532316,4.8207191 20.3886,5.3148164 19.86593,6.0382716 18.956631,5.2479023 16.431639,5.1112943 15.823251,7.4906747 z"
     id="path21"
     sodipodi:nodetypes="cccccccccccccccccsccccccccccccccccccccccccccc"
     inkscape:connector-curvature="0" />
  <path
     style="fill:#ffffff;fill-opacity:1;fill-rule:nonzero;stroke:none"
     d="M 19.493191,8.0063789 C 19.410915,7.7856574 19.349971,7.4628266 19.18948,7.2734085 18.302475,6.2265034 17.23911,7.0490257 16.663913,8.0163319 16.443464,8.3870459 16.227144,9.0288139 15.789271,9.1392517 15.382779,9.2417738 15.138658,8.7906873 14.905754,8.522083 c -1.32845,0.3115626 -2.800238,1.751254 -3.211203,3.352077 1.974156,0.105332 3.402019,-1.79514 5.504922,-1.283485 1.262691,0.307231 3.506613,1.376311 3.574209,3.089455 0.05776,1.463955 -1.417128,2.74334 -2.427349,3.391451 -1.251247,0.80277 -2.589884,0.156387 -3.899323,0.475324 0.456176,1.144915 1.538719,2.650822 1.628426,3.867781 0.158566,2.150615 -1.042562,3.644995 -1.785773,5.414891 -0.39115,0.931361 -0.110901,1.93776 -0.414314,2.875055 -0.465694,1.439072 -2.138067,1.649738 -3.327659,1.766287 0.177604,0.993245 0.717681,1.653089 1.031464,2.578519 0.198406,0.585066 0.189941,1.22351 0.408649,1.804966 0.838995,2.230162 2.405328,2.46584 4.294184,2.578519 0.29153,-0.416687 0.702221,-1.144089 1.278012,-0.794184 0.526571,0.319994 0.605199,1.300347 0.921203,1.821725 0.854342,1.410193 2.895819,2.724464 4.452566,2.448563 0.851887,-0.151102 1.776714,-0.718119 2.075585,-1.681453 0.189232,-0.609048 -0.241528,-1.926929 0.49292,-2.191485 0.69385,-0.2496 1.331503,1.057708 1.813414,1.436237 1.049378,0.824095 2.412533,0.971327 3.646095,0.7372 0.700731,-0.133054 1.953791,-0.439381 2.218256,-1.31608 0.195883,-0.6503 -0.802572,-2.021817 0.13464,-2.329434 0.712888,-0.234131 1.289758,0.786448 1.796441,1.166779 1.080112,0.810946 2.996514,0.770722 4.000704,-0.20396 1.287921,-1.250065 1.916401,-3.886087 0.863583,-5.513392 -0.384886,-0.594863 -1.608356,-1.208553 -1.497109,-2.063849 0.08028,-0.618073 0.8106,-0.86819 1.189981,-1.197725 0.795692,-0.690785 1.431279,-1.780984 1.326915,-2.953695 -0.102759,-1.155666 -0.874136,-2.193599 -1.612943,-2.941034 -0.363094,-0.367465 -0.894778,-0.680162 -1.098689,-1.20649 -0.355528,-0.917102 0.593156,-1.166652 1.164977,-1.267369 0.229833,-1.748468 -0.111702,-3.790682 -1.626933,-4.721709 -0.816562,-0.501574 -1.853783,-0.590894 -2.731131,-0.951035 0.553933,-0.788873 1.579915,-1.214845 1.987966,-2.097034 C 38.183553,10.223365 34.300748,8.6876496 32.757765,8.8416133 32.185712,8.8987017 31.584757,9.445477 31.01339,9.3209085 30.309908,9.1675897 30.037644,7.8908094 29.533944,7.3908086 28.665313,6.5282419 26.468158,5.345448 25.355934,6.24757 24.892603,6.6233894 24.731355,7.4378667 24.53937,8.0063789 24.222149,7.4698403 23.92603,6.7762183 23.481966,6.3566156 22.021556,4.97716 20.506945,7.0901273 19.493191,8.0063789 z"
     id="path22"
     sodipodi:nodetypes="ccccccccccccccccccccccccccccccccccccccccccccc"
     inkscape:connector-curvature="0" />
  <path
     style="fill:#e6b5c7;fill-opacity:1;stroke:none"
     d="M 9.4008327,13.421272 C 8.8982102,11.29603 6.9250379,9.466389 5.0427682,8.956409 4.4078904,8.7843958 3.0304194,8.4785575 2.7025093,9.3776103 2.3972406,10.214521 3.097122,11.244124 3.5560949,11.82919 c 0.9417083,1.200456 1.8310046,1.11405 3.0922751,1.441084 1.1130489,0.288588 1.6219115,0.600047 2.7524627,0.150998 z"
     id="path23"
     inkscape:connector-curvature="0" />
  <path
     style="fill:#e6b5c7;fill-opacity:1;stroke:none"
     d="m 12.382664,13.421272 c 0.361376,0.892194 0.910951,1.990618 1.665081,2.542499 1.620075,1.185655 4.752468,1.032775 5.285459,-1.512096 0.537716,-2.567382 -3.249371,-3.078651 -4.656822,-2.492553 -0.825965,0.343949 -1.545208,0.953846 -2.293718,1.46215 z"
     id="path24"
     inkscape:connector-curvature="0" />
  <path
     style="fill:#e6b5c7;fill-opacity:1;stroke:none"
     d="m 10.506772,13.857815 6.9e-5,0.143469 c 6.8e-5,0.136688 0.966068,1.50694 0.599667,4.061325 -0.315982,1.254038 -0.931776,2.395729 -1.54757,3.593607 C 9.2407541,22.03959 8.9725485,22.310618 8.3045936,22.300794 7.3058405,21.942457 7.4063518,21.078627 7.1071142,20.383277 6.5287065,20.789265 5.8018968,22.153406 5.0689613,22.025486 4.2395526,21.880727 4.0424307,19.939875 3.0389532,20.428634 c -0.578133,0.2816 -1.293635,1.393664 -1.5638796,1.9843 -1.46173278,3.194683 0.553839,6.67156 3.447296,7.64547 1.7998811,0.605439 3.9902455,0.786191 5.8038424,0.339335 0.63263,-0.155743 1.40091,-0.138467 1.972323,-0.72405 0.789245,-0.716314 0.605885,-2.583679 1.021185,-3.527418 0.612674,-1.392274 1.418481,-2.306539 1.493096,-3.958029 0.04651,-1.028984 -0.689769,-1.735061 -1.096764,-2.57852 -0.955839,-1.980897 -1.885322,-4.370593 -3.60928,-5.751907 z"
     id="path25"
     sodipodi:nodetypes="cscccccccccccccc"
     inkscape:connector-curvature="0" />
  <path
     style="fill:#ffffff;stroke:none"
     d="m 7.7952277,19.867574 0.2293721,0 c 0.6092369,-0.466584 0.8469569,-0.290316 1.3762329,0.257851 0.8176173,-0.991028 1.0541903,-2.406275 0.7904153,-3.495726 -1.1675488,-1.968777 -2.1880711,0.1067 -2.3800997,1.175058 -0.128243,0.713528 -0.1273021,1.356946 -0.015929,2.062817 z"
     id="path26"
     sodipodi:nodetypes="cccccc"
     inkscape:connector-curvature="0" />
  <path
     style="fill:#ffffff;stroke:none"
     d="m 4.3546519,19.609722 0.2293721,0 c 0.6092338,-0.46661 0.8469566,-0.290316 1.3762297,0.257852 0.3583244,-0.836318 1.5120885,-4.284058 -0.22866,-4.169004 -1.3513893,0.08932 -1.3690973,2.859244 -1.3769418,3.911152 z"
     id="path27"
     inkscape:connector-curvature="0" />
  <path
     style="fill:#e6b5c7;fill-opacity:1;stroke:none"
     d="m 40.506633,31.051392 c 0.507827,0.633802 0.641552,1.235111 0.832849,2.062818 l 4.564268,0.92904 c 0.150695,-0.400702 0.643846,-1.632462 0.195883,-2.185037 -0.819086,-0.624777 -3.882117,-0.602601 -5.593,-0.806821 z"
     id="path28"
     sodipodi:nodetypes="ccccc"
     inkscape:connector-curvature="0" />
  <path
     style="fill:#e6b5c7;fill-opacity:1;stroke:none"
     d="M 5.6559228,33.012873 C 5.2957424,33.76941 5.7927682,34.155415 6.04159,35.024892 7.894984,34.787928 9.5614604,34.366856 10.777062,34.307291 L 10.027569,32.328792 C 8.3455148,32.500521 6.213757,32.251179 5.6559228,33.012873 z"
     id="path29"
     sodipodi:nodetypes="ccccc"
     inkscape:connector-curvature="0" />
  <path
     style="fill:#e6b5c7;fill-opacity:1;stroke:none"
     d="m 41.425725,33.919997 c 0.280063,1.450159 -0.705318,3.223667 -2.036362,4.576615 2.045076,0.693881 5.701494,1.614155 6.538469,1.305763 0.823218,-0.399154 1.81869,-3.320875 1.376001,-4.204792 -0.674352,-0.774846 -3.966525,-1.258576 -5.878108,-1.677586 z"
     id="path30"
     sodipodi:nodetypes="ccccc"
     inkscape:connector-curvature="0" />
  <path
     style="fill:#e6b5c7;fill-opacity:1;stroke:none"
     d="m 4.7339188,36.538743 c -0.3786235,0.954826 0.088008,3.470947 1.2316113,4.197573 2.3876691,0.279768 5.1217119,-0.835957 7.5093579,-1.529836 -1.325082,-1.073695 -2.35372,-2.218817 -2.468453,-4.041316 -2.1407953,0.429583 -5.0310871,0.354032 -6.2725162,1.373579 z"
     id="path31"
     sodipodi:nodetypes="ccccc"
     inkscape:connector-curvature="0" />
</svg>
