<?xml version="1.0" encoding="UTF-8" standalone="no"?>
<!DOCTYPE svg PUBLIC "-//W3C//DTD SVG 1.1//EN" "http://www.w3.org/Graphics/SVG/1.1/DTD/svg11.dtd">
<svg width="100%" height="100%" viewBox="0 0 24 24" version="1.1" xmlns="http://www.w3.org/2000/svg" xmlns:xlink="http://www.w3.org/1999/xlink" xml:space="preserve" xmlns:serif="http://www.serif.com/" style="fill-rule:evenodd;clip-rule:evenodd;stroke-linejoin:round;stroke-miterlimit:2;">
    <g transform="matrix(0.678403,0,0,0.398051,-0.787127,3.15593)">
        <path d="M36.528,2.218L36.528,34.505C36.528,35.951 35.841,37.122 34.993,37.122L2.705,37.122C1.857,37.122 1.17,35.951 1.17,34.505L1.17,2.218C1.17,0.773 1.857,-0.399 2.705,-0.399L34.993,-0.399C35.841,-0.399 36.528,0.773 36.528,2.218ZM33.457,4.835L4.241,4.835L4.241,31.889L33.457,31.889L33.457,4.835Z"/>
    </g>
    <g transform="matrix(0.345644,0,0,0.628279,3.70453,-0.232518)">
        <path d="M20.986,27.254C20.986,26.339 22.337,25.596 24,25.596C25.663,25.596 27.014,26.339 27.014,27.254L27.014,31.765L30.51,31.765C32.173,31.765 33.523,32.508 33.523,33.423C33.523,34.338 32.173,35.081 30.51,35.081L24,35.081C22.336,35.081 20.986,34.339 20.986,33.423L20.986,27.254Z"/>
    </g>
    <g transform="matrix(0.29336,0,0,0.5,4.95935,4.05501)">
        <path d="M24,33.423L16.33,33.423" style="fill:none;"/>
    </g>
    <g transform="matrix(0.29336,0,0,0.5,4.95935,4.05501)">
        <path d="M24,31.34C25.96,31.34 27.551,32.274 27.551,33.423C27.551,34.573 25.96,35.507 24,35.507L16.33,35.507C14.371,35.507 12.779,34.573 12.779,33.423C12.779,32.274 14.371,31.34 16.33,31.34L24,31.34Z"/>
    </g>
    <g transform="matrix(0.852443,0,0,0.807298,-7.70718,-8.2114)">
        <path d="M24.107,17.516C24.107,17.516 24.205,18.576 24.205,18.576C24.409,18.629 24.609,18.697 24.803,18.779L25.482,17.978C25.596,17.843 25.784,17.81 25.933,17.898C26.322,18.126 26.684,18.401 27.012,18.716C27.141,18.84 27.169,19.042 27.08,19.2C27.08,19.2 26.563,20.117 26.563,20.117C26.697,20.283 26.819,20.459 26.929,20.643L27.931,20.412C28.099,20.373 28.269,20.462 28.342,20.627C28.528,21.051 28.666,21.495 28.754,21.952C28.789,22.132 28.699,22.313 28.54,22.385C28.54,22.385 27.603,22.811 27.603,22.81C27.617,23.026 27.617,23.242 27.603,23.458L28.54,23.884C28.699,23.956 28.789,24.136 28.754,24.316C28.666,24.773 28.528,25.218 28.342,25.642C28.269,25.806 28.099,25.896 27.931,25.857C27.931,25.857 26.929,25.625 26.93,25.625C26.819,25.809 26.697,25.985 26.563,26.152L27.08,27.068C27.169,27.226 27.141,27.429 27.012,27.552C26.684,27.868 26.322,28.143 25.933,28.371C25.784,28.459 25.596,28.425 25.482,28.291C25.482,28.291 24.803,27.489 24.803,27.489C24.609,27.571 24.409,27.639 24.205,27.692L24.107,28.753C24.091,28.934 23.956,29.079 23.785,29.1C23.342,29.154 22.895,29.154 22.452,29.1C22.281,29.079 22.146,28.934 22.129,28.753C22.129,28.753 22.032,27.692 22.032,27.692C21.828,27.639 21.628,27.571 21.434,27.489L20.755,28.291C20.641,28.425 20.453,28.459 20.303,28.371C19.915,28.143 19.553,27.868 19.225,27.552C19.096,27.429 19.068,27.226 19.157,27.068C19.157,27.068 19.674,26.152 19.674,26.152C19.54,25.985 19.418,25.809 19.308,25.625L18.306,25.857C18.138,25.896 17.968,25.806 17.895,25.642C17.709,25.218 17.571,24.773 17.483,24.316C17.448,24.136 17.538,23.956 17.697,23.884C17.697,23.884 18.634,23.458 18.634,23.458C18.62,23.243 18.62,23.026 18.634,22.811L17.697,22.385C17.538,22.313 17.448,22.132 17.483,21.952C17.571,21.495 17.709,21.051 17.895,20.627C17.968,20.462 18.138,20.373 18.306,20.412C18.306,20.412 19.308,20.643 19.307,20.644C19.418,20.459 19.54,20.283 19.674,20.117L19.157,19.2C19.068,19.042 19.096,18.84 19.225,18.716C19.553,18.401 19.915,18.126 20.303,17.898C20.453,17.81 20.641,17.843 20.755,17.978C20.755,17.978 21.434,18.779 21.434,18.779C21.628,18.697 21.828,18.629 22.032,18.576L22.129,17.516C22.146,17.334 22.281,17.19 22.452,17.169C22.895,17.115 23.342,17.115 23.785,17.169C23.956,17.19 24.091,17.334 24.107,17.516ZM23.407,17.911C23.215,17.9 23.022,17.9 22.83,17.911L22.735,18.933C22.719,19.105 22.597,19.245 22.436,19.276C22.11,19.339 21.793,19.446 21.494,19.596C21.347,19.669 21.172,19.632 21.064,19.504C21.064,19.504 20.409,18.732 20.409,18.732C20.248,18.84 20.093,18.957 19.944,19.084L20.442,19.966C20.526,20.116 20.506,20.307 20.391,20.432C20.163,20.683 19.968,20.964 19.81,21.268C19.732,21.418 19.569,21.496 19.41,21.46C19.41,21.46 18.445,21.236 18.445,21.237C18.376,21.421 18.317,21.61 18.269,21.802L19.171,22.212C19.322,22.28 19.411,22.447 19.389,22.619C19.346,22.961 19.346,23.308 19.389,23.65C19.411,23.822 19.322,23.988 19.171,24.057C19.171,24.057 18.269,24.467 18.269,24.467C18.317,24.659 18.376,24.847 18.445,25.032L19.41,24.809C19.569,24.772 19.732,24.85 19.81,25.001C19.968,25.305 20.163,25.586 20.391,25.836C20.506,25.962 20.526,26.153 20.442,26.303C20.442,26.303 19.944,27.185 19.945,27.185C20.093,27.311 20.248,27.429 20.409,27.537L21.064,26.765C21.172,26.637 21.347,26.6 21.494,26.673C21.793,26.822 22.11,26.93 22.436,26.992C22.597,27.023 22.719,27.163 22.735,27.336C22.735,27.336 22.83,28.357 22.83,28.357C23.022,28.369 23.215,28.369 23.407,28.357L23.502,27.336C23.518,27.163 23.64,27.023 23.801,26.992C24.127,26.93 24.444,26.822 24.743,26.673C24.89,26.6 25.065,26.637 25.173,26.765C25.173,26.765 25.827,27.537 25.828,27.537C25.989,27.429 26.144,27.311 26.293,27.185L25.795,26.303C25.711,26.153 25.731,25.962 25.846,25.836C26.074,25.586 26.269,25.305 26.427,25.001C26.505,24.85 26.668,24.772 26.827,24.809C26.827,24.809 27.792,25.032 27.792,25.032C27.861,24.847 27.92,24.658 27.968,24.467L27.066,24.057C26.915,23.988 26.826,23.822 26.847,23.65C26.891,23.308 26.891,22.961 26.847,22.619C26.826,22.447 26.915,22.28 27.066,22.212C27.066,22.212 27.968,21.802 27.968,21.802C27.92,21.61 27.861,21.421 27.792,21.236L26.827,21.46C26.668,21.496 26.505,21.418 26.427,21.268C26.269,20.964 26.074,20.683 25.846,20.432C25.731,20.307 25.711,20.116 25.795,19.966C25.795,19.966 26.293,19.084 26.292,19.084C26.144,18.957 25.989,18.84 25.827,18.732L25.173,19.504C25.065,19.632 24.89,19.669 24.743,19.596C24.444,19.446 24.127,19.339 23.801,19.276C23.64,19.245 23.518,19.105 23.502,18.933L23.407,17.911ZM23.118,20.021C24.763,20.021 26.096,21.417 26.096,23.134C26.096,24.851 24.763,26.248 23.118,26.248C21.474,26.248 20.141,24.851 20.141,23.134C20.141,21.417 21.474,20.021 23.118,20.021ZM23.118,20.795C21.881,20.795 20.874,21.842 20.874,23.134C20.874,24.427 21.881,25.474 23.118,25.474C24.356,25.474 25.363,24.427 25.363,23.134C25.363,21.842 24.356,20.795 23.118,20.795Z"/>
    </g>
</svg>
