<?xml version="1.0" encoding="UTF-8" standalone="no"?>
<!DOCTYPE svg PUBLIC "-//W3C//DTD SVG 1.1//EN" "http://www.w3.org/Graphics/SVG/1.1/DTD/svg11.dtd">
<svg width="100%" height="100%" viewBox="0 0 24 24" version="1.1" xmlns="http://www.w3.org/2000/svg" xmlns:xlink="http://www.w3.org/1999/xlink" xml:space="preserve" xmlns:serif="http://www.serif.com/" style="fill-rule:evenodd;clip-rule:evenodd;stroke-linecap:round;stroke-linejoin:round;stroke-miterlimit:1.5;">
    <g transform="matrix(0.678403,0,0,0.398051,-0.787127,3.15593)">
        <rect x="2.705" y="2.218" width="32.287" height="32.287" style="fill:none;stroke:black;stroke-width:3.75px;"/>
    </g>
    <g transform="matrix(0.345644,0,0,0.628279,3.70453,-0.232518)">
        <path d="M24,27.254L24,33.423L30.51,33.423" style="fill:none;stroke:black;stroke-width:4.11px;"/>
    </g>
    <g transform="matrix(0.29336,0,0,0.5,4.95935,4.05501)">
        <path d="M24,33.423L16.33,33.423" style="fill:none;stroke:black;stroke-width:5.08px;"/>
    </g>
    <g transform="matrix(0.852443,0,0,0.807298,-7.70718,-8.2114)">
        <path d="M23.743,17.553C23.328,17.503 22.909,17.503 22.494,17.553L22.37,18.895C22.013,18.964 21.665,19.082 21.337,19.246L20.482,18.236C20.118,18.45 19.779,18.707 19.472,19.002L20.127,20.164C19.876,20.439 19.662,20.748 19.488,21.082L18.228,20.79C18.054,21.186 17.924,21.602 17.842,22.029L19.026,22.567C18.978,22.944 18.978,23.325 19.026,23.701L17.842,24.239C17.924,24.667 18.054,25.082 18.228,25.479L19.488,25.187C19.662,25.521 19.876,25.829 20.127,26.105L19.472,27.266C19.779,27.562 20.118,27.819 20.482,28.032L21.337,27.023C21.665,27.187 22.013,27.304 22.37,27.373L22.494,28.715C22.909,28.766 23.328,28.766 23.743,28.715L23.867,27.373C24.224,27.304 24.572,27.187 24.9,27.023L25.755,28.032C26.119,27.819 26.458,27.562 26.765,27.266L26.11,26.105C26.361,25.829 26.575,25.521 26.749,25.187L28.009,25.479C28.183,25.082 28.313,24.667 28.395,24.239L27.211,23.701C27.259,23.325 27.259,22.944 27.211,22.567L28.395,22.029C28.313,21.602 28.183,21.186 28.009,20.79L26.749,21.082C26.575,20.748 26.361,20.439 26.11,20.164L26.765,19.002C26.458,18.707 26.119,18.45 25.755,18.236L24.9,19.246C24.572,19.082 24.224,18.964 23.867,18.895L23.743,17.553ZM23.118,20.408C24.56,20.408 25.73,21.63 25.73,23.134C25.73,24.639 24.56,25.861 23.118,25.861C21.677,25.861 20.507,24.639 20.507,23.134C20.507,21.63 21.677,20.408 23.118,20.408Z" style="fill:none;stroke:black;stroke-width:0.75px;"/>
    </g>
</svg>
