<?xml version="1.0" encoding="UTF-8" standalone="no"?>
<!DOCTYPE svg PUBLIC "-//W3C//DTD SVG 1.1//EN" "http://www.w3.org/Graphics/SVG/1.1/DTD/svg11.dtd">
<svg width="100%" height="100%" viewBox="0 0 24 24" version="1.1" xmlns="http://www.w3.org/2000/svg" xmlns:xlink="http://www.w3.org/1999/xlink" xml:space="preserve" xmlns:serif="http://www.serif.com/" style="fill-rule:evenodd;clip-rule:evenodd;stroke-linejoin:round;stroke-miterlimit:2;">
    <g transform="matrix(0.489098,0,0,0.572383,0.434315,-2.56883)">
        <path d="M23.708,44.539L23.617,44.539C15.666,44.539 9.211,39.023 9.211,32.229L9.211,14.372C9.211,9.954 13.408,6.367 18.579,6.367L28.775,6.367C33.912,6.367 38.083,9.931 38.083,14.321L38.083,32.255C38.083,39.035 31.642,44.539 23.708,44.539ZM23.617,41.288C23.644,41.272 23.673,41.263 23.706,41.263C29.525,41.263 34.25,37.227 34.25,32.255L34.25,14.321C34.25,11.739 31.796,9.643 28.775,9.643L18.579,9.643C15.524,9.643 13.044,11.762 13.044,14.372L13.044,32.229C13.044,37.215 17.782,41.263 23.617,41.263L23.617,41.288Z"/>
    </g>
    <g transform="matrix(0.545594,-2.76342e-05,-2.76342e-05,0.55995,-0.630703,-3.45931)">
        <path d="M12.504,24.585C11.45,24.585 10.595,23.752 10.595,22.725C10.595,21.698 11.45,20.865 12.504,20.865L33.527,20.866C34.581,20.866 35.436,21.699 35.436,22.726C35.436,23.753 34.581,24.586 33.527,24.586L12.504,24.585Z"/>
    </g>
    <g transform="matrix(0.55995,0,0,0.530294,-1.12482,-2.78573)">
        <path d="M21.579,9.86C21.579,8.775 22.413,7.895 23.439,7.895C24.466,7.895 25.3,8.775 25.3,9.86L25.3,22.725C25.3,23.809 24.466,24.689 23.439,24.689C22.413,24.689 21.579,23.809 21.579,22.725L21.579,9.86Z"/>
    </g>
</svg>
