<?xml version="1.0" encoding="UTF-8" standalone="no"?>
<!DOCTYPE svg PUBLIC "-//W3C//DTD SVG 1.1//EN" "http://www.w3.org/Graphics/SVG/1.1/DTD/svg11.dtd">
<svg width="100%" height="100%" viewBox="0 0 24 24" version="1.1" xmlns="http://www.w3.org/2000/svg" xmlns:xlink="http://www.w3.org/1999/xlink" xml:space="preserve" xmlns:serif="http://www.serif.com/" style="fill-rule:evenodd;clip-rule:evenodd;stroke-linejoin:round;stroke-miterlimit:2;">
    <g transform="matrix(0.432698,0.431991,-0.431991,0.432698,7.52919,-8.30829)">
        <path d="M23.745,0.5C22.993,0.5 22.383,-0.111 22.383,-0.863C22.383,-1.615 22.993,-2.226 23.745,-2.226C37.823,-2.226 49.252,9.203 49.252,23.281C49.252,24.033 48.641,24.644 47.889,24.644C47.137,24.644 46.526,24.033 46.526,23.281C46.526,10.708 36.319,0.5 23.745,0.5Z"/>
    </g>
    <g transform="matrix(0.324483,0.323953,-0.323953,0.324483,7.58226,-3.22482)">
        <path d="M23.745,1.182C22.617,1.182 21.701,0.266 21.701,-0.863C21.701,-1.991 22.617,-2.907 23.745,-2.907C38.199,-2.907 49.934,8.827 49.934,23.281C49.934,24.409 49.018,25.326 47.889,25.326C46.761,25.326 45.845,24.409 45.845,23.281C45.845,11.084 35.942,1.182 23.745,1.182Z"/>
    </g>
    <g transform="matrix(0.216322,0.215969,-0.215003,0.215354,7.61411,1.87994)">
        <path d="M23.745,1.876C22.241,1.876 21.019,0.649 21.019,-0.863C21.019,-2.374 22.241,-3.601 23.745,-3.601C38.579,-3.601 50.615,8.448 50.615,23.281C50.615,24.792 49.394,26.019 47.889,26.019C46.385,26.019 45.163,24.792 45.163,23.281C45.163,11.464 35.563,1.876 23.745,1.876Z"/>
    </g>
    <g transform="matrix(1.09058,0,0,1.66062,-13.8325,-27.9252)">
        <path d="M16.346,26.644L13.829,26.644C13.407,26.644 13.065,26.419 13.065,26.142L13.065,21.889C13.065,21.612 13.407,21.388 13.829,21.388L16.351,21.388L20.826,18.722C21.05,18.588 21.372,18.554 21.649,18.634C21.925,18.715 22.103,18.895 22.103,19.093L22.103,29.01C22.103,29.21 21.923,29.39 21.644,29.47C21.366,29.55 21.041,29.513 20.819,29.377L16.346,26.644ZM17.167,25.775C17.167,25.775 20.575,27.858 20.575,27.858L20.575,20.226L17.16,22.261C17.019,22.345 16.836,22.391 16.646,22.391C16.646,22.391 14.593,22.391 14.593,22.391C14.593,22.391 14.593,25.641 14.593,25.641L16.646,25.641C16.839,25.641 17.025,25.689 17.167,25.775Z"/>
    </g>
</svg>
