<?xml version="1.0" encoding="UTF-8" standalone="no"?>
<!DOCTYPE svg PUBLIC "-//W3C//DTD SVG 1.1//EN" "http://www.w3.org/Graphics/SVG/1.1/DTD/svg11.dtd">
<svg width="100%" height="100%" viewBox="0 0 24 24" version="1.1" xmlns="http://www.w3.org/2000/svg" xmlns:xlink="http://www.w3.org/1999/xlink" xml:space="preserve" xmlns:serif="http://www.serif.com/" style="fill-rule:evenodd;clip-rule:evenodd;stroke-linecap:round;stroke-linejoin:round;stroke-miterlimit:1;">
    <g transform="matrix(1.97883,0,0,3.13046,-36.6697,-65.7521)">
        <ellipse cx="24.595" cy="24.837" rx="0.739" ry="0.467"/>
        <path d="M24.595,24.37C25.003,24.37 25.334,24.58 25.334,24.837C25.334,25.095 25.003,25.304 24.595,25.304C24.187,25.304 23.856,25.095 23.856,24.837C23.856,24.58 24.187,24.37 24.595,24.37ZM24.595,24.77C24.536,24.77 24.488,24.8 24.488,24.837C24.488,24.875 24.536,24.905 24.595,24.905C24.654,24.905 24.702,24.875 24.702,24.837C24.702,24.8 24.654,24.77 24.595,24.77Z"/>
    </g>
    <g transform="matrix(0.752417,-0.733686,0.714704,0.73295,-4.5472,5.45561)">
        <path d="M7.932,9.081L8.324,13.961L7.848,15.853L5.945,15.853L5.469,13.961L5.873,8.935C5.914,8.429 6.326,8.039 6.821,8.039L6.83,8.039C7.405,8.039 7.884,8.492 7.932,9.081Z"/>
    </g>
    <g transform="matrix(0.78402,-7.63278e-17,7.63278e-17,0.78402,-10.7397,-5.10825)">
        <path d="M29.004,12.235L29.004,7.791C36.748,7.791 43.034,14.078 43.034,21.821C43.034,29.565 36.747,35.851 29.004,35.851C21.26,35.851 14.974,29.565 14.974,21.821C14.974,18.116 16.413,14.744 18.763,12.235" style="fill:none;stroke:black;stroke-width:2.66px;"/>
    </g>
    <g transform="matrix(0.763279,0,0,1,0,0)">
        <path d="M0,12L2.62,12" style="fill:none;stroke:black;stroke-width:0.47px;stroke-linecap:butt;"/>
    </g>
</svg>
