<?xml version="1.0" encoding="UTF-8" standalone="no"?>
<!DOCTYPE svg PUBLIC "-//W3C//DTD SVG 1.1//EN" "http://www.w3.org/Graphics/SVG/1.1/DTD/svg11.dtd">
<svg width="100%" height="100%" viewBox="0 0 24 24" version="1.1" xmlns="http://www.w3.org/2000/svg" xmlns:xlink="http://www.w3.org/1999/xlink" xml:space="preserve" xmlns:serif="http://www.serif.com/" style="fill-rule:evenodd;clip-rule:evenodd;stroke-linejoin:round;stroke-miterlimit:2;">
    <g transform="matrix(1.86789,0,0,3.13046,-33.2661,-65.7521)">
        <ellipse cx="24.595" cy="24.837" rx="0.739" ry="0.467"/>
        <path d="M24.595,24.37C25.003,24.37 25.334,24.58 25.334,24.837C25.334,25.095 25.003,25.304 24.595,25.304C24.187,25.304 23.856,25.095 23.856,24.837C23.856,24.58 24.187,24.37 24.595,24.37ZM24.595,24.77C24.545,24.77 24.526,24.805 24.526,24.837C24.526,24.869 24.545,24.905 24.595,24.905C24.646,24.905 24.665,24.869 24.665,24.837C24.665,24.805 24.646,24.77 24.595,24.77Z"/>
    </g>
    <g transform="matrix(0.710236,-0.733686,0.674637,0.73295,-2.94448,5.45561)">
        <path d="M7.932,9.081L8.324,13.961L7.848,15.853L5.945,15.853L5.469,13.961L5.873,8.935C5.914,8.429 6.326,8.039 6.821,8.039L6.83,8.039C7.405,8.039 7.884,8.492 7.932,9.081Z"/>
    </g>
    <g transform="matrix(0.782664,-7.63278e-17,7.61958e-17,0.78402,-10.6795,-5.10825)">
        <path d="M30.333,12.235C30.333,12.968 29.737,13.564 29.004,13.564C28.271,13.564 27.675,12.968 27.675,12.235L27.675,7.791C27.675,7.057 28.27,6.462 29.004,6.462C37.481,6.462 44.363,13.345 44.363,21.821C44.363,30.298 37.481,37.18 29.004,37.18C20.527,37.18 13.645,30.298 13.645,21.821C13.645,17.765 15.221,14.073 17.793,11.327C18.295,10.792 19.136,10.764 19.671,11.265C20.206,11.766 20.234,12.608 19.733,13.143C17.606,15.414 16.302,18.467 16.302,21.821C16.302,28.831 21.994,34.523 29.004,34.523C36.014,34.523 41.706,28.831 41.706,21.821C41.706,15.26 36.719,9.853 30.333,9.188L30.333,12.235Z"/>
    </g>
</svg>
