<?xml version="1.0" encoding="UTF-8" standalone="no"?>
<!DOCTYPE svg PUBLIC "-//W3C//DTD SVG 1.1//EN" "http://www.w3.org/Graphics/SVG/1.1/DTD/svg11.dtd">
<svg width="100%" height="100%" viewBox="0 0 48 48" version="1.1" xmlns="http://www.w3.org/2000/svg" xmlns:xlink="http://www.w3.org/1999/xlink" xml:space="preserve" xmlns:serif="http://www.serif.com/" style="fill-rule:evenodd;clip-rule:evenodd;stroke-linejoin:round;stroke-miterlimit:1;">
    <g transform="matrix(2.43615,0,0,3.85393,-35.9176,-71.7212)">
        <ellipse cx="24.595" cy="24.837" rx="0.739" ry="0.467"/>
        <path d="M24.595,24.37C25.003,24.37 25.334,24.58 25.334,24.837C25.334,25.095 25.003,25.304 24.595,25.304C24.187,25.304 23.856,25.095 23.856,24.837C23.856,24.58 24.187,24.37 24.595,24.37ZM24.595,25.019C24.754,25.019 24.883,24.938 24.883,24.837C24.883,24.737 24.754,24.656 24.595,24.656C24.437,24.656 24.308,24.737 24.308,24.837C24.308,24.938 24.437,25.019 24.595,25.019Z"/>
    </g>
    <path d="M25.719,24.542L24.161,25.796L18.756,19.876C18.756,19.876 12.779,11.888 10.847,9.306C10.515,8.863 10.594,8.236 11.026,7.889C11.033,7.884 11.04,7.878 11.047,7.872C11.472,7.53 12.093,7.588 12.448,8.003C14.535,10.444 21.033,18.045 21.033,18.045L25.719,24.542Z"/>
    <g transform="matrix(1.60368,-1.56125e-16,1.56125e-16,1.60368,-22.513,-10.9941)">
        <g transform="matrix(0.623567,6.0707e-17,-6.0707e-17,0.623567,14.0383,6.85558)">
            <path d="M-1.466,13.04L7.577,8.627L5.682,18.509L4.843,12.201L-1.466,13.04Z"/>
            <path d="M24,8.627L24,1.5C36.418,1.5 46.5,11.582 46.5,24C46.5,36.418 36.418,46.5 24,46.5C11.582,46.5 1.5,36.418 1.5,24C1.5,19.674 2.723,15.632 4.843,12.201" style="fill:none;stroke:black;stroke-width:3px;"/>
        </g>
    </g>
</svg>
