<?xml version="1.0" encoding="UTF-8" standalone="no"?>
<!DOCTYPE svg PUBLIC "-//W3C//DTD SVG 1.1//EN" "http://www.w3.org/Graphics/SVG/1.1/DTD/svg11.dtd">
<svg width="100%" height="100%" viewBox="0 0 24 24" version="1.1" xmlns="http://www.w3.org/2000/svg" xmlns:xlink="http://www.w3.org/1999/xlink" xml:space="preserve" xmlns:serif="http://www.serif.com/" style="fill-rule:evenodd;clip-rule:evenodd;stroke-linejoin:round;stroke-miterlimit:2;">
    <g transform="matrix(0.417371,0,0,0.419201,2.49629,1.16563)">
        <path d="M3.572,16.207C3.122,17.405 1.67,17.841 0.466,17.394C-0.737,16.947 -1.238,15.784 -0.788,14.586C2.948,4.624 12.597,-2.477 23.898,-2.477C36.712,-2.477 47.401,6.653 49.757,18.73C50.002,19.985 49.177,21.202 47.917,21.446C46.656,21.69 45.433,20.868 45.188,19.613C43.249,9.671 34.448,2.157 23.898,2.157C14.592,2.157 6.648,8.004 3.572,16.207Z"/>
    </g>
    <g transform="matrix(-0.922184,-0.30303,0.249403,-0.758986,6.73805,37.3573)">
        <path d="M12.728,29.256C12.819,29.056 12.992,28.932 13.179,28.932C13.367,28.932 13.54,29.056 13.631,29.256C14.176,30.46 15.085,32.468 15.616,33.64C15.704,33.834 15.701,34.07 15.608,34.26C15.515,34.451 15.347,34.568 15.165,34.568C14.089,34.568 12.27,34.568 11.194,34.568C11.012,34.568 10.843,34.451 10.751,34.26C10.658,34.07 10.655,33.834 10.743,33.64C11.273,32.468 12.183,30.46 12.728,29.256Z"/>
    </g>
    <g transform="matrix(-0.417371,0,0,-0.419201,21.7967,22.261)">
        <path d="M3.572,16.207C3.122,17.405 1.67,17.841 0.466,17.394C-0.737,16.947 -1.238,15.784 -0.788,14.586C2.948,4.624 12.597,-2.477 23.898,-2.477C36.712,-2.477 47.401,6.653 49.757,18.73C50.002,19.985 49.177,21.202 47.917,21.446C46.656,21.69 45.433,20.868 45.188,19.613C43.249,9.671 34.448,2.157 23.898,2.157C14.592,2.157 6.648,8.004 3.572,16.207Z"/>
    </g>
    <g transform="matrix(0.922184,0.30303,-0.249403,0.758986,17.5831,-13.9275)">
        <path d="M12.728,29.256C12.819,29.056 12.992,28.932 13.179,28.932C13.367,28.932 13.54,29.056 13.631,29.256C14.176,30.46 15.085,32.468 15.616,33.64C15.704,33.834 15.701,34.07 15.608,34.26C15.515,34.451 15.347,34.568 15.165,34.568C14.089,34.568 12.27,34.568 11.194,34.568C11.012,34.568 10.843,34.451 10.751,34.26C10.658,34.07 10.655,33.834 10.743,33.64C11.273,32.468 12.183,30.46 12.728,29.256Z"/>
    </g>
    <g transform="matrix(-0.759186,-0.249469,0.205321,-0.624833,4.9432,33.1769)">
        <path d="M11.261,28.554C11.646,27.704 12.381,27.176 13.179,27.176C13.978,27.176 14.713,27.704 15.098,28.554L16.896,32.525C17.27,33.349 17.257,34.352 16.863,35.161C16.469,35.971 15.752,36.468 14.978,36.468L11.381,36.468C10.607,36.468 9.89,35.971 9.496,35.161C9.102,34.352 9.089,33.349 9.463,32.525L11.261,28.554ZM13.39,32.667L13.179,32.202L12.969,32.667L13.39,32.667Z" style="fill:none;"/>
    </g>
    <g transform="matrix(0.75323,0.247512,-0.190579,0.579972,18.6834,-7.15192)">
        <path d="M11.277,28.422C11.673,27.546 12.397,27.008 13.179,27.008C13.962,27.008 14.686,27.546 15.082,28.422L16.836,32.295C17.238,33.182 17.243,34.279 16.85,35.172C16.456,36.064 15.725,36.615 14.934,36.615L11.425,36.615C10.634,36.615 9.902,36.064 9.509,35.172C9.116,34.279 9.121,33.182 9.523,32.295L11.277,28.422ZM13.079,32.52L13.28,32.52L13.179,32.298L13.079,32.52Z" style="fill:none;"/>
    </g>
</svg>
