<?xml version="1.0" encoding="UTF-8" standalone="no"?>
<!DOCTYPE svg PUBLIC "-//W3C//DTD SVG 1.1//EN" "http://www.w3.org/Graphics/SVG/1.1/DTD/svg11.dtd">
<svg width="100%" height="100%" viewBox="0 0 24 24" version="1.1" xmlns="http://www.w3.org/2000/svg" xmlns:xlink="http://www.w3.org/1999/xlink" xml:space="preserve" xmlns:serif="http://www.serif.com/" style="fill-rule:evenodd;clip-rule:evenodd;stroke-linecap:round;stroke-linejoin:round;stroke-miterlimit:1.5;">
    <g transform="matrix(0.447633,0,0,0.449595,1.3226,1.3417)">
        <path d="M1.392,15.397C4.798,6.314 13.595,-0.16 23.898,-0.16C35.58,-0.16 45.325,8.162 47.473,19.171" style="fill:none;stroke:black;stroke-width:4.64px;"/>
    </g>
    <g transform="matrix(-0.759186,-0.249469,0.205321,-0.624833,4.9432,33.1769)">
        <path d="M12.631,29.47C12.741,29.227 12.951,29.076 13.179,29.076C13.408,29.076 13.618,29.227 13.728,29.47C14.247,30.616 15.02,32.323 15.526,33.441C15.633,33.676 15.629,33.963 15.516,34.194C15.404,34.426 15.199,34.568 14.978,34.568C13.952,34.568 12.406,34.568 11.381,34.568C11.16,34.568 10.955,34.426 10.843,34.194C10.73,33.963 10.726,33.676 10.833,33.441C11.339,32.323 12.112,30.616 12.631,29.47Z"/>
    </g>
    <g transform="matrix(-0.447633,0,0,-0.449595,22.7072,22.6779)">
        <path d="M1.392,15.397C4.798,6.314 13.595,-0.16 23.898,-0.16C35.58,-0.16 45.325,8.162 47.473,19.171" style="fill:none;stroke:black;stroke-width:4.64px;"/>
    </g>
    <g transform="matrix(0.75323,0.247512,-0.190579,0.579972,18.6834,-7.15192)">
        <path d="M12.636,29.46C12.749,29.209 12.956,29.056 13.179,29.056C13.403,29.056 13.61,29.209 13.723,29.46C14.226,30.57 14.97,32.213 15.477,33.333C15.592,33.587 15.593,33.9 15.481,34.155C15.369,34.41 15.16,34.568 14.934,34.568C13.923,34.568 12.436,34.568 11.425,34.568C11.199,34.568 10.99,34.41 10.878,34.155C10.766,33.9 10.767,33.587 10.882,33.333C11.389,32.213 12.133,30.57 12.636,29.46Z"/>
    </g>
</svg>
