<?xml version="1.0" encoding="UTF-8" standalone="no"?>
<!DOCTYPE svg PUBLIC "-//W3C//DTD SVG 1.1//EN" "http://www.w3.org/Graphics/SVG/1.1/DTD/svg11.dtd">
<svg width="100%" height="100%" viewBox="0 0 24 24" version="1.1" xmlns="http://www.w3.org/2000/svg" xmlns:xlink="http://www.w3.org/1999/xlink" xml:space="preserve" xmlns:serif="http://www.serif.com/" style="fill-rule:evenodd;clip-rule:evenodd;stroke-linejoin:round;stroke-miterlimit:2;">
    <g transform="matrix(0.447633,0,0,0.449595,1.3226,1.3417)">
        <path d="M3.572,16.207C3.122,17.405 1.781,18.014 0.578,17.567C-0.625,17.12 -1.238,15.784 -0.788,14.586C2.948,4.624 12.597,-2.477 23.898,-2.477C36.712,-2.477 47.401,6.653 49.757,18.73C50.002,19.985 49.177,21.202 47.917,21.446C46.656,21.69 45.433,20.868 45.188,19.613C43.249,9.671 34.448,2.157 23.898,2.157C14.592,2.157 6.648,8.004 3.572,16.207Z"/>
    </g>
    <g transform="matrix(-0.759186,-0.249469,0.205321,-0.624833,4.9432,33.1769)">
        <path d="M12.631,29.47C12.741,29.227 12.951,29.076 13.179,29.076C13.408,29.076 13.618,29.227 13.728,29.47C14.247,30.616 15.02,32.323 15.526,33.441C15.633,33.676 15.629,33.963 15.516,34.194C15.404,34.426 15.199,34.568 14.978,34.568C13.952,34.568 12.406,34.568 11.381,34.568C11.16,34.568 10.955,34.426 10.843,34.194C10.73,33.963 10.726,33.676 10.833,33.441C11.339,32.323 12.112,30.616 12.631,29.47Z"/>
    </g>
    <g transform="matrix(-0.759186,-0.249469,0.205321,-0.624833,4.9432,33.1769)">
        <path d="M11.261,28.554C11.646,27.704 12.381,27.176 13.179,27.176C13.978,27.176 14.713,27.704 15.098,28.554L16.896,32.525C17.27,33.349 17.257,34.352 16.863,35.161C16.469,35.971 15.752,36.468 14.978,36.468L11.381,36.468C10.607,36.468 9.89,35.971 9.496,35.161C9.102,34.352 9.089,33.349 9.463,32.525L11.261,28.554ZM13.39,32.667L13.179,32.202L12.969,32.667L13.39,32.667Z" style="fill:none;"/>
    </g>
    <g transform="matrix(-0.447633,0,0,-0.449595,22.7072,22.6779)">
        <path d="M3.572,16.207C3.122,17.405 1.781,18.014 0.578,17.567C-0.625,17.12 -1.238,15.784 -0.788,14.586C2.948,4.624 12.597,-2.477 23.898,-2.477C36.712,-2.477 47.401,6.653 49.757,18.73C50.002,19.985 49.177,21.202 47.917,21.446C46.656,21.69 45.433,20.868 45.188,19.613C43.249,9.671 34.448,2.157 23.898,2.157C14.592,2.157 6.648,8.004 3.572,16.207Z"/>
    </g>
    <g transform="matrix(0.75323,0.247512,-0.190579,0.579972,18.6834,-7.15192)">
        <path d="M12.636,29.46C12.749,29.209 12.956,29.056 13.179,29.056C13.403,29.056 13.61,29.209 13.723,29.46C14.226,30.57 14.97,32.213 15.477,33.333C15.592,33.587 15.593,33.9 15.481,34.155C15.369,34.41 15.16,34.568 14.934,34.568C13.923,34.568 12.436,34.568 11.425,34.568C11.199,34.568 10.99,34.41 10.878,34.155C10.766,33.9 10.767,33.587 10.882,33.333C11.389,32.213 12.133,30.57 12.636,29.46Z"/>
    </g>
    <g transform="matrix(0.75323,0.247512,-0.190579,0.579972,18.6834,-7.15192)">
        <path d="M11.277,28.422C11.673,27.546 12.397,27.008 13.179,27.008C13.962,27.008 14.686,27.546 15.082,28.422L16.836,32.295C17.238,33.182 17.243,34.279 16.85,35.172C16.456,36.064 15.725,36.615 14.934,36.615L11.425,36.615C10.634,36.615 9.902,36.064 9.509,35.172C9.116,34.279 9.121,33.182 9.523,32.295L11.277,28.422ZM13.079,32.52L13.28,32.52L13.179,32.298L13.079,32.52Z" style="fill:none;"/>
    </g>
</svg>
