/* XPM */
static char * workrave_xpm[] = {
"24 24 78 1",
" 	c None",
".	c #000000",
"+	c #161616",
"@	c #2C2C2C",
"#	c #232222",
"$	c #8E8E8E",
"%	c #DBDBDB",
"&	c #FEFEFE",
"*	c #737575",
"=	c #F5F5F5",
"-	c #E3E3E3",
";	c #4B4B4B",
">	c #1F2525",
",	c #D59696",
"'	c #3E4B4B",
")	c #5F6161",
"!	c #0F1212",
"~	c #ECECEC",
"{	c #A87474",
"]	c #FBADAD",
"^	c #7D5959",
"/	c #0C0A0A",
"(	c #675454",
"_	c #B1A2A2",
":	c #150505",
"<	c #A9ABAB",
"[	c #323333",
"}	c #020808",
"|	c #B78989",
"1	c #080202",
"2	c #5E5858",
"3	c #FFBABA",
"4	c #FFD5D5",
"5	c #5F3F3F",
"6	c #A5A7A7",
"7	c #D1D1D1",
"8	c #3A3B3B",
"9	c #C7CACA",
"0	c #8F7979",
"a	c #2E3939",
"b	c #A6ACAC",
"c	c #505050",
"d	c #797777",
"e	c #9E9494",
"f	c #E29696",
"g	c #5F6A6A",
"h	c #A47676",
"i	c #364040",
"j	c #553A3A",
"k	c #654545",
"l	c #FFC2C2",
"m	c #422E2E",
"n	c #BCBEBE",
"o	c #231818",
"p	c #342323",
"q	c #FFCDCD",
"r	c #FEB3B3",
"s	c #E19C9C",
"t	c #1E1212",
"u	c #C28181",
"v	c #687070",
"w	c #2B1D1D",
"x	c #FFEDED",
"y	c #656B6B",
"z	c #F7A9A9",
"A	c #6A4545",
"B	c #795252",
"C	c #534C4C",
"D	c #EDA4A4",
"E	c #D08D8D",
"F	c #736D6D",
"G	c #656565",
"H	c #B4B4B4",
"I	c #CA9292",
"J	c #FFE2E2",
"K	c #444545",
"L	c #9C9C9C",
"M	c #6A6A6A",
"                        ",
"                        ",
"                        ",
"        .+@ +#+         ",
" ..   .@$%&*%=-@;.      ",
" >,' .&)!&&&&&&~&-;     ",
" @{]^./(_:<&&&&&&&[     ",
"  }.|123456&&&&&&78[    ",
"  90&#a11b&&&&&&&&~c    ",
" [8.defg&&&&&&&&&&&*    ",
"/hijkl3mn&&&&&&&&&~o    ",
"pq]rsr3#n&&&&&&&&&&9+   ",
"trrrrruv&&&&&&&&&&&&#   ",
" wrl3qj<&&&&&&&&&&&</   ",
"  ow/t*&&&&&&&&&&&~#... ",
"   px:&&&&&&&&&&&&&%yzk ",
"   .^.&&&&&&&&&&=&&-iABC",
"  .DEF;=<&&&7=&&GH=yI4Jw",
"  .D,z...H&-#KLL;..[/...",
"   ...   .;M #..        ",
"                        ",
"                        ",
"                        ",
"                        "};
