<?xml version="1.0" encoding="UTF-8" standalone="no"?>
<!DOCTYPE svg PUBLIC "-//W3C//DTD SVG 1.1//EN" "http://www.w3.org/Graphics/SVG/1.1/DTD/svg11.dtd">
<svg width="100%" height="100%" viewBox="0 0 200 144" version="1.1" xmlns="http://www.w3.org/2000/svg" xmlns:xlink="http://www.w3.org/1999/xlink" xml:space="preserve" xmlns:serif="http://www.serif.com/" style="fill-rule:evenodd;clip-rule:evenodd;stroke-miterlimit:2;">
    <g transform="matrix(0.7993,0,0,0.7993,22.496688,4.676206)">
        <g id="path21">
            <path d="M76,33C64.685,31.671 56.963,39.279 52,49C45.143,39.463 36.934,34.241 25.246,32.45C21.36,31.854 16.215,31.579 13.647,35.228C10.806,39.264 14.643,48.312 17.29,51.711C19.127,54.069 21.346,56.867 24.104,58.157C28.072,60.014 32.443,59.263 36,62C34.602,61.588 33.434,61.123 31.956,61.113C23.821,61.055 24.637,68.887 20.698,74C14.517,82.022 6.47,88.971 7.044,100C7.686,112.321 19.336,123.388 31,125.624C36.447,126.669 42.47,126 48,126L48,127C41.333,127.333 33.686,127.231 29.634,129.961C27.257,134.512 29.673,137.429 30.564,141C28.96,141.729 26.703,142.24 25.752,144.058C23.647,147.528 24.483,150.779 25.646,154.901C26.553,158.39 28.576,161.154 30.98,163.732C33.72,166.016 38.601,165.066 43,164.428C46.998,163.896 53.969,162.155 57.921,161.29C66.137,159.328 69.385,158.539 78,158.863C83.239,159.059 86.139,163.503 90,166.471C95.044,170.348 101.544,172.826 108,172.105C111.816,171.679 115.126,169.512 117.826,166.9C119.287,165.488 120.63,163.231 122.665,162.581C125.407,161.705 130.212,164.234 133,164.799C141.744,166.573 152.779,164.833 157,156L178.001,157.049L188,159.36C195.667,160.573 207.096,162.79 209.746,160.617C212.584,159.185 217.179,148.973 216.129,141.27C215.09,138.551 212.921,137.963 210,137C211,132.625 212.753,127.246 210.617,125.13C206.762,121.913 193,121.958 183,121C188.355,114.717 193.798,107.538 190.532,99C189.052,95.132 185.589,91.928 184.526,88C183.077,82.642 185.633,76.705 183.957,71C183.154,68.267 182.119,65.398 180.352,63.129C178.861,61.215 176.235,59.972 175.201,57.741C173.405,53.868 176.657,49.242 174.987,45C170.861,34.518 153.648,29.357 144,34C140.497,21.852 115.87,18.712 113.375,24.946C109.841,22.015 107.055,21.796 104,22.217C100.89,22.645 95.904,24.562 93.625,27.367C89.661,24.302 78.652,23.772 76,33Z" style="fill-rule:nonzero;"/>
        </g>
    </g>
    <g transform="matrix(0.7993,0,0,0.7993,22.496688,4.676206)">
        <g id="path22">
            <path d="M92,35C91.641,34.144 91.376,32.892 90.676,32.157C86.809,28.097 82.173,31.287 79.665,35.039C78.704,36.476 77.761,38.965 75.852,39.394C74.08,39.791 73.015,38.042 72,37C66.208,38.208 59.792,43.792 58,50C66.607,50.408 72.832,43.038 82,45.022C87.505,46.214 97.288,50.36 97.583,57.004C97.834,62.681 91.404,67.643 87,70.157C81.545,73.27 75.709,70.763 70,72C71.989,76.44 76.708,82.28 77.1,87C77.791,95.341 72.554,101.136 69.314,108C67.609,111.612 68.831,115.515 67.508,119.15C65.477,124.731 58.186,125.548 53,126C53.774,129.852 56.129,132.411 57.497,136C58.362,138.269 58.325,140.745 59.279,143C62.936,151.649 69.765,152.563 78,153C79.271,151.384 81.061,148.563 83.572,149.92C85.868,151.161 86.21,154.963 87.588,156.985C91.313,162.454 100.213,167.551 107,166.481C110.714,165.895 114.746,163.696 116.049,159.96C116.874,157.598 114.996,152.487 118.198,151.461C121.223,150.493 124.003,155.563 126.104,157.031C130.679,160.227 136.622,160.798 142,159.89C145.055,159.374 150.518,158.186 151.671,154.786C152.525,152.264 148.172,146.945 152.258,145.752C155.366,144.844 157.881,148.802 160.09,150.277C164.799,153.422 173.154,153.266 177.532,149.486C183.147,144.638 185.887,134.415 181.297,128.104C179.619,125.797 174.285,123.417 174.77,120.1C175.12,117.703 178.304,116.733 179.958,115.455C183.427,112.776 186.198,108.548 185.743,104C185.295,99.518 181.932,95.493 178.711,92.594C177.128,91.169 174.81,89.956 173.921,87.915C172.371,84.358 176.507,83.391 179,83C180.002,76.219 178.513,68.299 171.907,64.688C168.347,62.743 163.825,62.397 160,61C162.415,57.941 166.888,56.289 168.667,52.867C173.485,43.598 156.557,37.642 149.83,38.239C147.336,38.461 144.716,40.581 142.225,40.098C139.158,39.503 137.971,34.552 135.775,32.613C131.988,29.267 122.409,24.68 117.56,28.179C115.54,29.637 114.837,32.795 114,35C112.617,32.919 111.326,30.229 109.39,28.602C103.023,23.252 96.42,31.447 92,35Z" style="fill:white;fill-rule:nonzero;"/>
        </g>
    </g>
    <g transform="matrix(0.7993,0,0,0.7993,22.496688,4.676206)">
        <g id="path23">
            <path d="M48,56C45.809,47.758 37.206,40.662 29,38.684C26.232,38.017 20.227,36.831 18.797,40.318C17.466,43.564 20.517,47.557 22.518,49.826C26.624,54.481 30.501,54.146 36,55.414C40.853,56.534 43.071,57.742 48,56Z" style="fill:rgb(230,181,199);fill-rule:nonzero;"/>
        </g>
    </g>
    <g transform="matrix(0.7993,0,0,0.7993,22.496688,4.676206)">
        <g id="path24">
            <path d="M61,56C62.575,59.46 64.972,63.72 68.259,65.86C75.322,70.459 88.979,69.866 91.302,59.996C93.647,50.039 77.136,48.056 71,50.33C67.399,51.663 64.263,54.029 61,56Z" style="fill:rgb(230,181,199);fill-rule:nonzero;"/>
        </g>
    </g>
    <g transform="matrix(0.7993,0,0,0.7993,22.496688,4.676206)">
        <g id="path25">
            <path d="M52.822,57.693L52.822,58.249C52.822,58.779 57.034,64.094 55.436,74C54.059,78.863 51.374,83.291 48.689,87.937C47.302,89.424 46.133,90.475 43.221,90.436C38.866,89.047 39.305,85.697 38,83C35.478,84.575 32.31,89.865 29.114,89.369C25.498,88.807 24.639,81.28 20.264,83.176C17.743,84.268 14.624,88.581 13.446,90.871C7.073,103.261 15.86,116.745 28.475,120.522C36.322,122.87 45.871,123.571 53.778,121.838C56.536,121.234 59.886,121.301 62.377,119.03C65.818,116.252 65.019,109.01 66.829,105.35C69.5,99.951 73.013,96.405 73.339,90C73.541,86.009 70.332,83.271 68.557,80C64.39,72.318 60.338,63.05 52.822,57.693Z" style="fill:rgb(230,181,199);fill-rule:nonzero;"/>
        </g>
    </g>
    <g transform="matrix(0.7993,0,0,0.7993,22.496688,4.676206)">
        <g id="path26">
            <path d="M41,81L42,81C44.656,79.191 45.693,79.874 48,82C51.565,78.157 52.596,72.668 51.446,68.443C46.356,60.808 41.907,68.857 41.069,73C40.51,75.767 40.514,78.263 41,81Z" style="fill:white;fill-rule:nonzero;"/>
        </g>
    </g>
    <g transform="matrix(0.7993,0,0,0.7993,22.496688,4.676206)">
        <g id="path27">
            <path d="M26,80L27,80C29.656,78.19 30.692,78.874 33,81C34.562,77.757 39.592,64.386 32.003,64.832C26.111,65.178 26.034,75.921 26,80Z" style="fill:white;fill-rule:nonzero;"/>
        </g>
    </g>
    <g transform="matrix(0.7993,0,0,0.7993,22.496688,4.676206)">
        <g id="path28">
            <path d="M183.613,124.373C185.827,126.831 186.41,129.163 187.244,132.373L207.143,135.976C207.8,134.422 209.95,129.645 207.997,127.502C204.426,125.079 191.072,125.165 183.613,124.373Z" style="fill:rgb(230,181,199);fill-rule:nonzero;"/>
        </g>
    </g>
    <g transform="matrix(0.7993,0,0,0.7993,22.496688,4.676206)">
        <g id="path29">
            <path d="M31.673,131.98C30.103,134.914 32.27,136.411 33.355,139.783C41.435,138.864 48.7,137.231 54,137L50.732,129.327C43.399,129.993 34.105,129.026 31.673,131.98Z" style="fill:rgb(230,181,199);fill-rule:nonzero;"/>
        </g>
    </g>
    <g transform="matrix(0.7993,0,0,0.7993,20.09879,5.475506)">
        <g id="path30">
            <path d="M187.62,135.498C188.841,141.122 184.545,148 178.742,153.247C187.658,155.938 203.599,159.507 207.248,158.311C210.837,156.763 215.177,145.432 213.247,142.004C210.307,138.999 195.954,137.123 187.62,135.498Z" style="fill:rgb(230,181,199);fill-rule:nonzero;"/>
        </g>
    </g>
    <g transform="matrix(0.7993,0,0,0.7993,22.496688,4.676206)">
        <g id="path31">
            <path d="M27.654,145.654C26.003,149.357 28.037,159.115 33.023,161.933C43.433,163.018 55.352,158.691 65.762,156C59.985,151.836 55.5,147.395 55,140.327C45.667,141.993 33.066,141.7 27.654,145.654Z" style="fill:rgb(230,181,199);fill-rule:nonzero;"/>
        </g>
    </g>
    <g id="orbit-swirl">
    </g>
    <g id="scar">
        <g transform="matrix(0.22449,0,0,0.218463,9.500025,5.323543)">
            <path d="M287.29,373.713C285.248,372.852 285.841,372.232 284.8,370.234C274.047,349.593 252.561,328.389 252.486,327.564C252.418,326.82 252.119,325.772 253.514,326.436C253.542,326.45 258.722,330.691 261.015,332.742C268.98,339.867 277.856,350.858 283.276,362.116C283.701,362.998 289.258,374.541 287.29,373.713Z"/>
        </g>
        <g transform="matrix(0.088849,0.216127,-0.207589,0.080818,120.462796,-2.670403)">
            <path d="M287.286,373.701C285.29,372.83 285.869,372.212 284.838,370.22C274.056,349.395 252.609,328.394 252.517,327.554C252.438,326.832 252.13,325.789 253.483,326.446C253.646,326.525 270.467,339.042 280.622,357.22C280.837,357.604 282.748,360.947 284.668,365.21C288.241,373.143 287.915,373.976 287.286,373.701Z"/>
        </g>
        <g transform="matrix(0.102054,0.24825,-0.256391,0.099817,131.284234,-18.97657)">
            <path d="M287.234,373.574C286.694,373.339 286.551,373.489 286.308,372.957C276.363,351.171 252.618,328.03 252.563,327.433C252.513,326.897 252.282,325.943 253.437,326.567C253.444,326.571 258.271,330.627 260.918,333.057C279.034,349.691 285.889,368.217 287.176,371.696C287.229,371.838 287.994,373.905 287.234,373.574Z"/>
        </g>
        <g transform="matrix(0.092947,0.226096,-0.225258,0.087697,122.0611,-12.029773)">
            <path d="M287.265,373.65C286.681,373.395 286.522,373.576 286.254,372.995C276.523,351.862 252.593,328.142 252.529,327.502C252.464,326.856 252.189,325.848 253.471,326.498C253.521,326.524 260.271,332.115 263.162,334.943C281.529,352.911 287.26,371.759 287.526,372.474C287.582,372.625 288.295,374.1 287.265,373.65Z"/>
        </g>
        <g transform="matrix(0.22449,0,0,0.218463,7.704106,7.726634)">
            <path d="M287.29,373.713C285.248,372.852 285.841,372.232 284.8,370.234C274.047,349.593 252.561,328.389 252.486,327.564C252.418,326.82 252.119,325.772 253.514,326.436C253.542,326.45 258.722,330.691 261.015,332.742C268.98,339.867 277.856,350.858 283.276,362.116C283.701,362.998 289.258,374.541 287.29,373.713Z"/>
        </g>
        <g transform="matrix(0.204682,0,0,0.208964,16.756327,6.681812)">
            <path d="M287.306,373.75C286.622,373.463 286.436,373.676 286.127,373.04C279.267,358.957 269.312,346.836 252.494,327.659C251.452,326.471 252.833,326.078 253.578,326.424C253.607,326.437 258.868,330.705 261.195,332.77C269.022,339.718 277.993,350.727 283.407,362.108C283.83,362.997 289.356,374.613 287.306,373.75Z"/>
        </g>
    </g>
    <g id="mounth">
        <g transform="matrix(0.333333,0,0,0.318588,-0.666667,-55.251048)">
            <path d="M165.256,478.008C164.491,478.041 163.736,478.228 162.97,478.261C162.455,478.283 162.485,478.035 160.017,477.854C158.168,477.718 158.234,476.485 150.343,477.208C148.952,477.335 148.96,477.425 148.84,477.404C148.104,477.276 147.395,477.007 146.658,476.879C146.877,476.121 146.96,475.325 147.178,474.566C147.228,474.394 149.266,471.38 151.369,470.93C153.812,470.408 157.627,470.72 160.357,471.471C165.324,472.839 165.216,477.792 165.256,478.008Z"/>
        </g>
        <g transform="matrix(0.333333,0,0,0.318588,-0.666667,-55.251048)">
            <path d="M180.457,466.297C179.499,466.159 178.516,466.482 177.558,466.344C177.395,466.32 174.935,464.155 169.713,461.799C167.965,461.01 166.854,460.652 164.187,461.883C162.803,462.522 154.734,471.42 147.622,465.445C146.233,464.278 144.666,462.594 142.11,461.129C141.702,460.895 137.447,461.926 136.498,463.855C135.79,465.295 135.964,465.387 135.858,465.474C135.151,466.057 134.259,466.362 133.551,466.945C133.187,466.079 132.507,465.386 132.143,464.52C132.143,464.52 132.353,462.588 132.856,461.315C134.341,457.551 139.902,454.764 142.544,454.959C146.973,455.284 151.082,461.224 152.721,461.19C156.569,461.11 159.189,457.263 161.813,456.117C166.046,454.268 169.138,453.565 176.059,459.325C176.338,459.557 177.408,460.447 179.316,462.51C179.557,462.769 179.929,462.948 180.033,463.292C180.475,464.76 180.018,464.839 180.457,466.297Z"/>
        </g>
    </g>
    <g id="dizzy-stars" transform="matrix(0.22982,0,0,0.22982,19.766494,-2.592614)">
        <g transform="matrix(1,0,0,1,-388.015859,-194.701764)">
            <path d="M548.659,331.5C545.808,327.187 505.886,332.6 487.575,336.8C467.874,341.32 454.378,347.576 453.991,347.602C453.368,347.643 452.755,347.333 452.132,347.375C452.642,347.014 452.733,346.226 453.243,345.865C453.305,345.821 459.145,343.181 462.69,341.74C462.738,341.72 485.782,330.954 527.575,325.847C543.844,323.859 552.721,324.238 554.005,330.558C555.06,335.748 549.062,338.005 539.374,343.024C524.613,350.671 473.58,361.754 427.312,361.05C415.948,360.877 389.023,361.17 386.743,351.172C384.903,343.105 404.989,332.994 419.65,327.528C470.746,308.481 539.187,297.356 601.114,280.128C601.663,279.975 627.625,273.121 637.574,266.62C638.493,266.019 641.904,264.554 639.452,259.287C637.661,255.44 631.103,254.023 618.3,250.962C607.713,248.43 583.272,245.124 565.972,244.951C565.238,244.943 487.089,244.405 478.938,244.479C460.915,244.644 457.25,245.311 437.168,248.022C435.494,248.248 433.281,248.893 433.264,248.891C432.829,248.84 432.544,248.315 432.109,248.264C432.565,247.892 432.814,247.306 433.27,246.934C433.688,246.593 454.231,242.173 468.271,241.023C485.306,239.628 557.649,237.832 582.668,239.826C607.85,241.833 634.555,247.054 641.476,252.252C645.227,255.068 650.408,264.807 642.183,270.94C620.788,286.893 517.72,304.94 460.165,321.271C426.324,330.873 406.086,338.34 395.316,347.385C393.549,348.87 393.171,349.562 393.029,349.887C393.735,350.582 395.556,351.855 399.643,352.778C414.97,356.239 465.912,356.762 514.831,344.981C531.467,340.975 534.914,338.831 544.01,334.406C544.303,334.263 547.524,332.772 548.559,331.591C548.596,331.549 548.629,331.519 548.659,331.5ZM392.775,349.605C392.779,349.581 392.774,349.555 392.759,349.527C392.626,349.295 392.584,349.36 392.775,349.605ZM549.117,331.525C549.137,331.524 549.158,331.523 549.18,331.52C549.158,331.521 549.137,331.522 549.117,331.525Z"/>
        </g>
        <g transform="matrix(1,0,0,1,-388.015859,-194.701764)">
            <path d="M557.82,265.936C557.309,266.111 557.005,266.689 556.495,266.864C553.743,267.806 516.33,272.48 512.163,273.053C475.938,278.035 471.748,280.892 458.125,284.058C453.929,285.033 453.196,285.006 445.44,287.714C444.978,287.875 445.025,287.585 444.254,287.346C444.512,287.022 444.482,286.527 444.739,286.203C444.772,286.162 448.723,283.912 449.827,283.363C456.744,279.929 477.588,274.233 495.261,271.35C533.337,265.139 550.483,265.201 555.312,265.218C557.178,265.225 557.475,265.837 557.82,265.936Z"/>
        </g>
        <g transform="matrix(1,0,0,1,-388.015859,-194.701764)">
            <path d="M382.062,358.556C382.262,358.815 382.948,359.355 381.938,359.444C381.722,359.462 374.083,359.016 369.313,358.262C362.469,357.179 350.012,354.854 352.646,345.472C352.869,344.678 352.335,342.284 365.08,334.602C368.499,332.542 375.845,327.226 405.459,319.407C406.758,319.063 415.516,316.751 421.851,315.71C421.964,315.691 423.341,315.22 423.459,315.924C423.559,316.524 423.147,316.313 418.526,317.435C411.372,319.173 385.092,326.507 372.292,333.777C368.771,335.776 357.231,342.768 356.107,345.785C354.782,349.339 357.557,351.119 357.953,351.373C363.668,355.039 381.899,358.345 382.062,358.556Z"/>
        </g>
        <g transform="matrix(1,0,0,1,-388.015859,-194.701764)">
            <path d="M501.543,357.873C501.404,358.096 501.354,358.41 501.127,358.543C499.348,359.587 482.41,361.639 463.697,369.482C452.074,374.353 441.835,380.197 444.146,381.602C446.341,382.936 452.217,382.971 462.789,382.084C483.371,380.356 577.941,357.621 595.285,352.601C601.11,350.915 630.567,341.713 638.095,337.029C646.253,331.954 645.987,329.779 644.641,326.736C642.221,321.266 633.076,321.381 633.459,319.863C633.579,319.389 633.857,319.041 639.503,320.773C640.758,321.158 646.496,322.455 647.664,328.777C648.075,330.998 647.795,333.775 640.674,338.992C638.225,340.787 633.639,344.147 605.507,353.257C597.348,355.899 578.283,362.072 501.404,378.849C498.146,379.56 458.201,389.057 444.679,385.687C440.231,384.579 436.91,380.059 445.379,374.692C459.766,365.575 478.552,361.584 481.582,360.941C486.935,359.803 493.785,358.779 499.554,357.713C499.994,357.631 500.426,357.421 500.872,357.457C501.134,357.478 501.682,357.649 501.543,357.873Z"/>
        </g>
        <g transform="matrix(1,0,0,1,-388.015859,-194.701764)">
            <path d="M667.33,283.815C667.204,284.249 666.962,285.083 663.049,287.503C648.796,296.316 629.262,297.158 641.354,293.131C643.506,292.415 649.105,291.429 655.309,288.672C656.113,288.315 667.696,282.548 667.33,283.815Z"/>
        </g>
        <g transform="matrix(1,0,0,1,-389.015859,-193.701764)">
            <path d="M434.504,382.993C433.971,383.532 433.405,383.818 430.387,384.41C426.299,385.211 404.886,384.705 402.959,382.494C402.553,382.028 402.338,381.782 403.041,381.506C406.222,380.259 406.628,381.21 426.202,381.458C427.458,381.474 429.33,381.405 432.131,382.031C434.601,382.583 434.648,382.847 434.504,382.993Z"/>
        </g>
        <g transform="matrix(5.736271,0.831504,-0.767307,5.293399,-22.409714,102.789278)">
            <path d="M0,-4L1,-1.4L3.8,-1.24L1.62,0.52L2.35,3.24L0,1.7L-2.35,3.24L-1.62,0.52L-3.8,-1.24L-1,-1.4L0,-4Z" style="fill:rgb(255,204,0);stroke:black;stroke-width:0.5px;"/>
        </g>
        <g transform="matrix(6.033571,-0.528346,0.463133,5.288855,207.057853,126.787551)">
            <path d="M0,-4L1,-1.4L3.8,-1.24L1.62,0.52L2.35,3.24L0,1.7L-2.35,3.24L-1.62,0.52L-3.8,-1.24L-1,-1.4L0,-4Z" style="fill:rgb(255,204,0);stroke:black;stroke-width:0.5px;"/>
        </g>
        <g transform="matrix(4.686223,4.32318,-4.832524,5.23834,305.584239,68.768355)">
            <path d="M0,-4L1,-1.4L3.8,-1.24L1.62,0.52L2.35,3.24L0,1.7L-2.35,3.24L-1.62,0.52L-3.8,-1.24L-1,-1.4L0,-4Z" style="fill:rgb(255,204,0);stroke:black;stroke-width:0.5px;"/>
        </g>
    </g>
    <g id="spiral-eyes" transform="matrix(1,0,0,1,13.5,9.676301)">
        <g transform="matrix(1.294118,0,0,2.666667,2.617647,-64.166669)">
            <path d="M33.5,44C33.5,43.726 33.726,43.5 34,43.5C34.274,43.5 34.5,43.726 34.5,44C34.5,44.494 34.094,44.9 33.6,44.9C33.106,44.9 32.7,44.494 32.7,44C32.7,43.287 33.287,42.7 34,42.7C34.713,42.7 35.3,43.287 35.3,44C35.3,44.933 34.533,45.7 33.6,45.7C32.667,45.7 31.9,44.933 31.9,44" style="fill:none;stroke:black;stroke-width:0.41px;stroke-linecap:round;stroke-linejoin:round;"/>
        </g>
        <g transform="matrix(1.294118,0,0,2.666667,7.558824,-65.16667)">
            <path d="M20.1,44C20.1,43.726 20.326,43.5 20.6,43.5C20.874,43.5 21.1,43.726 21.1,44C21.1,44.494 20.694,44.9 20.2,44.9C19.706,44.9 19.3,44.494 19.3,44C19.3,43.287 19.887,42.7 20.6,42.7C21.313,42.7 21.9,43.287 21.9,44C21.9,44.933 21.133,45.7 20.2,45.7C19.267,45.7 18.5,44.933 18.5,44" style="fill:none;stroke:black;stroke-width:0.41px;stroke-linecap:round;stroke-linejoin:round;"/>
        </g>
    </g>
</svg>
