<?xml version="1.0" encoding="UTF-8" standalone="no"?>
<!DOCTYPE svg PUBLIC "-//W3C//DTD SVG 1.1//EN" "http://www.w3.org/Graphics/SVG/1.1/DTD/svg11.dtd">
<svg width="100%" height="100%" viewBox="0 0 64 64" version="1.1" xmlns="http://www.w3.org/2000/svg" xmlns:xlink="http://www.w3.org/1999/xlink" xml:space="preserve" xmlns:serif="http://www.serif.com/" style="fill-rule:evenodd;clip-rule:evenodd;stroke-linejoin:round;stroke-miterlimit:2;">
    <g transform="matrix(0.296272,0,0,0.296272,0.228603,8.66753)">
        <g id="Layer1">
            <g>
                <g id="path21" transform="matrix(1,0,0,1,-4.4112,-18.38)">
                    <path d="M76,33C64.685,31.671 56.963,39.279 52,49C45.143,39.463 36.934,34.241 25.246,32.45C21.36,31.854 16.215,31.579 13.647,35.228C10.806,39.264 14.643,48.312 17.29,51.711C19.127,54.069 21.347,56.867 24.104,58.157C28.072,60.014 32.443,59.263 36,62C34.602,61.588 33.435,61.123 31.956,61.113C23.821,61.055 24.637,68.887 20.698,74C14.517,82.022 6.47,88.971 7.044,100C7.686,112.321 19.336,123.388 31,125.624C36.447,126.669 42.47,126 48,126L48,127C41.333,127.333 33.686,127.231 29.634,129.961C27.257,134.512 29.673,137.429 30.564,141C28.96,141.729 26.703,142.24 25.752,144.058C23.647,147.528 24.484,150.779 25.647,154.901C26.553,158.39 28.576,161.154 30.98,163.732C33.72,166.016 38.601,165.066 43,164.428C46.998,163.896 53.969,162.155 57.921,161.29C66.137,159.328 69.385,158.539 78,158.863C83.239,159.059 86.139,163.503 90,166.471C95.044,170.348 101.544,172.826 108,172.105C111.816,171.679 115.126,169.512 117.826,166.9C119.287,165.488 120.63,163.231 122.665,162.581C125.407,161.705 130.212,164.234 133,164.799C141.744,166.573 152.779,164.833 157,156L178.001,157.049L188,159.36C195.667,160.573 207.096,162.79 209.746,160.617C212.584,159.185 217.179,148.973 216.129,141.27C215.09,138.551 212.921,137.963 210,137C211,132.625 212.753,127.246 210.617,125.13C206.762,121.913 193,121.958 183,121C188.355,114.717 193.798,107.538 190.532,99C189.052,95.132 185.589,91.928 184.526,88C183.077,82.642 185.633,76.705 183.957,71C183.154,68.267 182.119,65.398 180.352,63.129C178.861,61.215 176.235,59.972 175.201,57.741C173.405,53.868 176.657,49.242 174.987,45C170.861,34.518 153.648,29.357 144,34C140.497,21.852 115.87,18.712 113.375,24.946C109.841,22.015 107.055,21.796 104,22.217C100.89,22.645 95.904,24.562 93.625,27.367C89.661,24.302 78.652,23.772 76,33Z" style="fill-rule:nonzero;"/>
                </g>
                <g id="path22" transform="matrix(1,0,0,1,-4.4112,-18.38)">
                    <path d="M92,35C91.641,34.144 91.376,32.892 90.676,32.157C86.809,28.097 82.173,31.287 79.665,35.039C78.704,36.476 77.761,38.965 75.852,39.394C74.08,39.791 73.015,38.042 72,37C66.208,38.208 59.792,43.792 58,50C66.607,50.408 72.832,43.038 82,45.022C87.505,46.214 97.288,50.36 97.583,57.004C97.834,62.681 91.404,67.643 87,70.157C81.545,73.27 75.709,70.763 70,72C71.989,76.44 76.708,82.28 77.1,87C77.791,95.341 72.554,101.136 69.314,108C67.609,111.612 68.831,115.515 67.508,119.15C65.477,124.731 58.186,125.548 53,126C53.774,129.852 56.129,132.411 57.497,136C58.362,138.269 58.325,140.745 59.279,143C62.936,151.649 69.765,152.563 78,153C79.271,151.384 81.062,148.563 83.572,149.92C85.868,151.161 86.21,154.963 87.588,156.985C91.313,162.454 100.213,167.551 107,166.481C110.714,165.895 114.746,163.696 116.049,159.96C116.874,157.598 114.996,152.487 118.198,151.461C121.223,150.493 124.003,155.563 126.104,157.031C130.679,160.227 136.622,160.798 142,159.89C145.055,159.374 150.518,158.186 151.671,154.786C152.525,152.264 148.172,146.945 152.258,145.752C155.366,144.844 157.881,148.802 160.09,150.277C164.799,153.422 173.154,153.266 177.532,149.486C183.147,144.638 185.887,134.415 181.297,128.104C179.619,125.797 174.285,123.417 174.77,120.1C175.12,117.703 178.304,116.733 179.958,115.455C183.427,112.776 186.198,108.548 185.743,104C185.295,99.518 181.932,95.493 178.711,92.594C177.128,91.169 174.81,89.956 173.921,87.915C172.371,84.358 176.507,83.391 179,83C180.002,76.219 178.513,68.299 171.907,64.688C168.347,62.743 163.825,62.397 160,61C162.415,57.941 166.888,56.289 168.667,52.867C173.485,43.598 156.557,37.642 149.83,38.239C147.336,38.461 144.716,40.581 142.225,40.098C139.158,39.503 137.971,34.552 135.775,32.613C131.988,29.267 122.409,24.68 117.56,28.179C115.54,29.637 114.837,32.795 114,35C112.617,32.919 111.326,30.229 109.39,28.602C103.023,23.252 96.42,31.447 92,35Z" style="fill:white;fill-rule:nonzero;"/>
                </g>
                <g id="path23" transform="matrix(1,0,0,1,-4.4112,-18.38)">
                    <path d="M48,56C45.809,47.758 37.206,40.662 29,38.684C26.232,38.017 20.227,36.831 18.797,40.318C17.466,43.564 20.517,47.557 22.519,49.826C26.624,54.481 30.501,54.146 36,55.414C40.853,56.534 43.071,57.742 48,56Z" style="fill:rgb(230,181,199);fill-rule:nonzero;"/>
                </g>
                <g id="path24" transform="matrix(1,0,0,1,-4.4112,-18.38)">
                    <path d="M61,56C62.576,59.46 64.972,63.72 68.259,65.86C75.322,70.459 88.979,69.866 91.303,59.996C93.647,50.039 77.136,48.057 71,50.33C67.399,51.663 64.263,54.029 61,56Z" style="fill:rgb(230,181,199);fill-rule:nonzero;"/>
                </g>
                <g id="path25" transform="matrix(1,0,0,1,-4.4112,-18.38)">
                    <path d="M52.822,57.693L52.822,58.249C52.822,58.78 57.034,64.094 55.436,74C54.059,78.863 51.374,83.291 48.689,87.937C47.302,89.424 46.133,90.475 43.221,90.437C38.866,89.047 39.305,85.697 38,83C35.478,84.575 32.31,89.865 29.114,89.369C25.498,88.807 24.639,81.28 20.264,83.176C17.743,84.268 14.624,88.581 13.446,90.871C7.073,103.261 15.86,116.745 28.475,120.522C36.322,122.87 45.872,123.571 53.778,121.838C56.536,121.234 59.886,121.301 62.377,119.03C65.818,116.252 65.019,109.01 66.829,105.35C69.5,99.951 73.013,96.405 73.339,90C73.542,86.009 70.332,83.271 68.557,80C64.39,72.318 60.338,63.05 52.822,57.693Z" style="fill:rgb(230,181,199);fill-rule:nonzero;"/>
                </g>
                <g id="path26" transform="matrix(1,0,0,1,-4.4112,-18.38)">
                    <path d="M41,81L42,81C44.656,79.191 45.693,79.874 48,82C51.565,78.157 52.596,72.668 51.446,68.443C46.356,60.808 41.907,68.857 41.069,73C40.51,75.767 40.514,78.263 41,81Z" style="fill:white;fill-rule:nonzero;"/>
                </g>
                <g id="path27" transform="matrix(1,0,0,1,-4.4112,-18.38)">
                    <path d="M26,80L27,80C29.656,78.19 30.693,78.874 33,81C34.562,77.757 39.592,64.386 32.003,64.832C26.111,65.178 26.034,75.921 26,80Z" style="fill:white;fill-rule:nonzero;"/>
                </g>
                <g id="path28" transform="matrix(1,0,0,1,-4.4112,-18.38)">
                    <path d="M183.613,124.373C185.827,126.831 186.41,129.163 187.244,132.373L207.143,135.976C207.8,134.422 209.95,129.645 207.997,127.502C204.426,125.079 191.072,125.165 183.613,124.373Z" style="fill:rgb(230,181,199);fill-rule:nonzero;"/>
                </g>
                <g id="path29" transform="matrix(1,0,0,1,-4.4112,-18.38)">
                    <path d="M31.673,131.98C30.103,134.914 32.27,136.411 33.355,139.783C41.435,138.864 48.7,137.231 54,137L50.732,129.327C43.399,129.993 34.105,129.026 31.673,131.98Z" style="fill:rgb(230,181,199);fill-rule:nonzero;"/>
                </g>
                <g id="path30" transform="matrix(1,0,0,1,-4.4112,-18.38)">
                    <path d="M187.62,135.498C188.841,141.122 184.545,148 178.742,153.247C187.658,155.938 203.599,159.507 207.248,158.311C210.837,156.763 215.177,145.432 213.247,142.004C210.307,138.999 195.954,137.123 187.62,135.498Z" style="fill:rgb(230,181,199);fill-rule:nonzero;"/>
                </g>
                <g id="path31" transform="matrix(1,0,0,1,-4.4112,-18.38)">
                    <path d="M27.654,145.654C26.003,149.357 28.037,159.115 33.023,161.933C43.433,163.018 55.352,158.691 65.762,156C59.985,151.836 55.5,147.395 55,140.327C45.667,141.993 33.066,141.7 27.654,145.654Z" style="fill:rgb(230,181,199);fill-rule:nonzero;"/>
                </g>
            </g>
        </g>
    </g>
    <g transform="matrix(0.995799,0.0134912,0.0308128,0.996184,-0.897787,-1.80388)">
        <path d="M3,62L61,5" style="fill:none;"/>
    </g>
    <g transform="matrix(0.995799,0.0134912,0.0308128,0.996184,-0.897787,-1.80388)">
        <path d="M5.952,63.968C4.941,64.961 3.95,62.967 3,62C2.05,61.033 1.078,59.994 2.089,59.001L58.017,4.037C59.028,3.043 61.055,4.02 62.005,4.986C62.955,5.953 63.927,6.992 62.916,7.986L5.952,63.968Z" style="fill:url(#_Linear1);"/>
    </g>
    <defs>
        <linearGradient id="_Linear1" x1="0" y1="0" x2="1" y2="0" gradientUnits="userSpaceOnUse" gradientTransform="matrix(3.89426,3.96258,-4.14286,4.07143,30.0529,31.5187)"><stop offset="0" style="stop-color:rgb(255,0,0);stop-opacity:1"/><stop offset="0.69" style="stop-color:rgb(255,0,0);stop-opacity:1"/><stop offset="0.85" style="stop-color:rgb(160,5,5);stop-opacity:1"/><stop offset="1" style="stop-color:rgb(124,7,7);stop-opacity:1"/></linearGradient>
    </defs>
</svg>
