<?xml version="1.0" standalone="no"?>
<!DOCTYPE svg PUBLIC "-//W3C//DTD SVG 20010904//EN"
"http://www.w3.org/TR/2001/REC-SVG-20010904/DTD/svg10.dtd"
[
 <!ATTLIST svg
  xmlns:xlink CDATA #FIXED "http://www.w3.org/1999/xlink">
]>
<!-- Created with Sodipodi ("http://www.sodipodi.com/") -->
<svg
   width="172.8pt"
   height="123.8pt"
   id="svg19"
   sodipodi:version="0.28"
   sodipodi:docname="workrave-sheep.svg"
   xmlns="http://www.w3.org/2000/svg"
   xmlns:sodipodi="http://sodipodi.sourceforge.net/DTD/sodipodi-0.dtd"
   xmlns:xlink="http://www.w3.org/1999/xlink">
  <defs
     id="defs33">
    <linearGradient
       id="linearGradient45">
      <stop
         style="stop-color:#ffffff;stop-opacity:1;"
         offset="0.000000"
         id="stop46" />
      <stop
         style="stop-color:#ffffe3;stop-opacity:1;"
         offset="1.000000"
         id="stop47" />
    </linearGradient>
    <linearGradient
       id="linearGradient34">
      <stop
         style="stop-color:#ffcfe1;stop-opacity:1;"
         offset="0.000000"
         id="stop35" />
      <stop
         style="stop-color:#cc9cae;stop-opacity:1;"
         offset="1.000000"
         id="stop36" />
    </linearGradient>
    <linearGradient
       xlink:href="#linearGradient45"
       id="linearGradient37"
       x1="0.34434"
       y1="0.164063"
       x2="0.740566"
       y2="1.14063"
       gradientUnits="objectBoundingBox"
       gradientTransform="translate(-3.78779e-09,-9.13568e-08)"
       spreadMethod="pad" />
    <linearGradient
       xlink:href="#linearGradient34"
       id="linearGradient38"
       x1="0.241803"
       y1="0.0714291"
       x2="0.528688"
       y2="0.633929"
       gradientUnits="objectBoundingBox"
       gradientTransform="translate(2.87627e-08,1.59374e-07)"
       spreadMethod="pad" />
    <linearGradient
       xlink:href="#linearGradient45"
       id="linearGradient39"
       x1="0.607143"
       y1="0.210937"
       x2="0.484694"
       y2="0.898438"
       gradientUnits="objectBoundingBox"
       gradientTransform="translate(4.89422e-08,2.26557e-08)"
       spreadMethod="pad" />
    <linearGradient
       xlink:href="#linearGradient45"
       id="linearGradient40"
       x1="0.569672"
       y1="0.184211"
       x2="0.438524"
       y2="0.649123"
       gradientUnits="objectBoundingBox"
       gradientTransform="matrix(1,0,0,1,2.16099e-07,5.47175e-10)"
       spreadMethod="pad" />
    <radialGradient
       xlink:href="#linearGradient45"
       id="radialGradient41"
       cx="1.03795e-08"
       cy="1.88508e-08"
       fx="1.03795e-08"
       fy="1.88508e-08"
       r="0.763763"
       gradientUnits="objectBoundingBox"
       gradientTransform="matrix(1.01659,0,0,0.983682,0.147058,0.414063)"
       spreadMethod="pad" />
    <radialGradient
       xlink:href="#linearGradient45"
       id="radialGradient42"
       cx="-3.60596e-14"
       cy="1.29641e-13"
       fx="-3.60596e-14"
       fy="1.29641e-13"
       r="0.767283"
       gradientUnits="objectBoundingBox"
       gradientTransform="matrix(1.17706,0,0,0.849577,0.866336,0.695314)"
       spreadMethod="pad" />
    <radialGradient
       xlink:href="#linearGradient34"
       id="radialGradient43"
       cx="3.3878e-09"
       cy="-1.85092e-09"
       fx="3.3878e-09"
       fy="-1.85092e-09"
       r="0.944645"
       gradientUnits="objectBoundingBox"
       gradientTransform="matrix(1.17119,0,0,0.853835,-0.0726344,0.390645)"
       spreadMethod="pad" />
    <linearGradient
       xlink:href="#linearGradient45"
       id="linearGradient44"
       x1="0"
       y1="0"
       x2="1"
       y2="0"
       gradientUnits="objectBoundingBox"
       gradientTransform="translate(1.07102e-08,1.04396e-07)"
       spreadMethod="pad" />
    <radialGradient
       xlink:href="#linearGradient45"
       id="radialGradient48"
       cx="2.32399e-26"
       cy="3.27678e-26"
       fx="2.32399e-26"
       fy="3.27678e-26"
       r="1.31578"
       gradientUnits="objectBoundingBox"
       gradientTransform="matrix(1.0925,0,0,0.915332,0.229445,0.351504)"
       spreadMethod="pad" />
  </defs>
  <sodipodi:namedview
     id="base" />
  <path
     style="fill:#000000; stroke:none"
     d="M 76 33 C 64.685 31.6712 56.9626 39.2788 52 49 C 45.1426 39.4634 36.9343 34.2413 25.2461 32.4498 C 21.3596 31.8542 16.2154 31.5789 13.6466 35.2284 C 10.8061 39.2638 14.6434 48.3124 17.2901 51.7106 C 19.127 54.0691 21.3465 56.8667 24.1042 58.1574 C 28.0715 60.0144 32.4427 59.2632 36 62 C 34.6019 61.5878 33.4345 61.1232 31.956 61.1127 C 23.8206 61.0549 24.6371 68.8871 20.6975 74 C 14.5167 82.0217 6.46957 88.9713 7.04398 100 C 7.68572 112.321 19.3356 123.388 31 125.624 C 36.4468 126.669 42.4699 126 48 126 L 48 127 C 41.3333 127.333 33.6864 127.231 29.6338 129.961 C 27.2573 134.512 29.6732 137.429 30.5643 141 C 28.9602 141.729 26.7025 142.24 25.7519 144.058 C 23.6473 147.528 24.4835 150.779 25.6465 154.901 C 26.5531 158.39 28.5758 161.154 30.9803 163.732 C 33.7198 166.016 38.6007 165.066 43 164.428 C 46.9978 163.896 53.9691 162.155 57.9211 161.29 C 66.1372 159.328 69.3848 158.539 78 158.863 C 83.239 159.059 86.1391 163.503 90 166.471 C 95.0441 170.348 101.544 172.826 108 172.105 C 111.816 171.679 115.126 169.512 117.826 166.9 C 119.287 165.488 120.63 163.231 122.665 162.581 C 125.407 161.705 130.212 164.234 133 164.799 C 141.744 166.573 152.779 164.833 157 156 L 178.001 157.049 L 188 159.36 C 195.667 160.573 207.096 162.79 209.746 160.617 C 212.584 159.185 217.179 148.973 216.129 141.27 C 215.09 138.551 212.921 137.963 210 137 C 211 132.625 212.753 127.246 210.617 125.13 C 206.762 121.913 193 121.958 183 121 C 188.355 114.717 193.798 107.538 190.532 99 C 189.052 95.1325 185.589 91.9282 184.526 88 C 183.077 82.6423 185.633 76.7051 183.957 71 C 183.154 68.2669 182.119 65.3976 180.352 63.1289 C 178.861 61.215 176.235 59.9719 175.201 57.7407 C 173.405 53.8678 176.657 49.2419 174.987 45 C 170.861 34.5179 153.648 29.357 144 34 C 140.497 21.852 115.87 18.7121 113.375 24.946 C 109.841 22.0152 107.055 21.7958 104 22.2168 C 100.89 22.6454 95.9037 24.5616 93.625 27.3673 C 89.6607 24.3021 78.6524 23.7723 76 33 z "
     id="path21"
     sodipodi:nodetypes="cccccccccccccccccsccccccccccccccccccccccccccc"
     transform="translate(-4.4112,-18.38)" />
  <path
     style="fill:#ffffff;stroke:none;fill-opacity:1;fill-rule:nonzero;"
     d="M 92 35 C 91.6413 34.144 91.3756 32.892 90.6759 32.1574 C 86.8088 28.0973 82.1728 31.2872 79.6651 35.0386 C 78.704 36.4763 77.7609 38.9652 75.8519 39.3935 C 74.0797 39.7911 73.0154 38.0417 72 37 C 66.2083 38.2083 59.7917 43.7917 58 50 C 66.6068 50.4085 72.8319 43.0381 82 45.0224 C 87.505 46.2139 97.2879 50.36 97.5826 57.0039 C 97.8344 62.6814 91.4043 67.6431 87 70.1566 C 81.5449 73.2699 75.7088 70.7631 70 72 C 71.9888 76.4402 76.7084 82.2804 77.0995 87 C 77.7908 95.3405 72.5542 101.136 69.314 108 C 67.6087 111.612 68.8305 115.515 67.5077 119.15 C 65.4774 124.731 58.1863 125.548 53 126 C 53.7743 129.852 56.1289 132.411 57.4969 136 C 58.3619 138.269 58.325 140.745 59.2785 143 C 62.9363 151.649 69.7651 152.563 78 153 C 79.271 151.384 81.0615 148.563 83.5718 149.92 C 85.8675 151.161 86.2103 154.963 87.588 156.985 C 91.3127 162.454 100.213 167.551 107 166.481 C 110.714 165.895 114.746 163.696 116.049 159.96 C 116.874 157.598 114.996 152.487 118.198 151.461 C 121.223 150.493 124.003 155.563 126.104 157.031 C 130.679 160.227 136.622 160.798 142 159.89 C 145.055 159.374 150.518 158.186 151.671 154.786 C 152.525 152.264 148.172 146.945 152.258 145.752 C 155.366 144.844 157.881 148.802 160.09 150.277 C 164.799 153.422 173.154 153.266 177.532 149.486 C 183.147 144.638 185.887 134.415 181.297 128.104 C 179.619 125.797 174.285 123.417 174.77 120.1 C 175.12 117.703 178.304 116.733 179.958 115.455 C 183.427 112.776 186.198 108.548 185.743 104 C 185.295 99.5181 181.932 95.4928 178.711 92.5941 C 177.128 91.169 174.81 89.9563 173.921 87.9151 C 172.371 84.3584 176.507 83.3906 179 83 C 180.002 76.2191 178.513 68.299 171.907 64.6883 C 168.347 62.7431 163.825 62.3967 160 61 C 162.415 57.9406 166.888 56.2886 168.667 52.8673 C 173.485 43.5979 156.557 37.6421 149.83 38.2392 C 147.336 38.4606 144.716 40.5811 142.225 40.098 C 139.158 39.5034 137.971 34.5518 135.775 32.6127 C 131.988 29.2675 122.409 24.6804 117.56 28.179 C 115.54 29.6365 114.837 32.7952 114 35 C 112.617 32.9192 111.326 30.2292 109.39 28.6019 C 103.023 23.2521 96.4197 31.4466 92 35 z "
     id="path22"
     sodipodi:nodetypes="ccccccccccccccccccccccccccccccccccccccccccccc"
     transform="translate(-4.4112,-18.38)" />
  <path
     style="fill:#e6b5c7;stroke:none;fill-opacity:1;"
     d="M48 56C45.8087 47.7579 37.2062 40.6622 29 38.6844C26.2321 38.0173 20.2267 36.8312 18.7971 40.3179C17.4662 43.5636 20.5175 47.5566 22.5185 49.8256C26.6241 54.4812 30.5012 54.1461 36 55.4144C40.8526 56.5336 43.0711 57.7415 48 56z"
     id="path23"
     transform="translate(-4.4112,-18.38)" />
  <path
     style="fill:#e6b5c7;stroke:none;fill-opacity:1;"
     d="M61 56C62.5755 59.4601 64.9715 63.72 68.2593 65.8603C75.3224 70.4585 88.9788 69.8656 91.3025 59.9961C93.6468 50.0393 77.1361 48.0565 71 50.3295C67.399 51.6634 64.2633 54.0287 61 56z"
     id="path24"
     transform="translate(-4.4112,-18.38)" />
  <path
     style="fill:#e6b5c7;stroke:none;fill-opacity:1;"
     d="M 52.8216 57.693 L 52.8219 58.2494 C 52.8222 58.7795 57.0337 64.0936 55.4363 74 C 54.0587 78.8634 51.374 83.2911 48.6893 87.9367 C 47.3021 89.4235 46.1328 90.4746 43.2207 90.4365 C 38.8664 89.0468 39.3046 85.6967 38 83 C 35.4783 84.5745 32.3096 89.8649 29.1142 89.3688 C 25.4982 88.8074 24.6388 81.2804 20.2639 83.1759 C 17.7434 84.268 14.624 88.5808 13.4458 90.8714 C 7.07304 103.261 15.8604 116.745 28.4751 120.522 C 36.3221 122.87 45.8715 123.571 53.7783 121.838 C 56.5364 121.234 59.8859 121.301 62.3771 119.03 C 65.818 116.252 65.0186 109.01 66.8292 105.35 C 69.5003 99.9505 73.0134 96.4048 73.3387 90 C 73.5415 86.0094 70.3315 83.2711 68.5571 80 C 64.3899 72.3177 60.3376 63.05 52.8216 57.693 z "
     id="path25"
     sodipodi:nodetypes="cscccccccccccccc"
     transform="translate(-4.4112,-18.38)" />
  <path
     style="fill:#ffffff; stroke:none"
     d="M 41 81 L 42 81 C 44.6561 79.1905 45.6925 79.8741 48 82 C 51.5646 78.1566 52.596 72.668 51.446 68.4429 C 46.3558 60.8076 41.9066 68.8567 41.0694 73 C 40.5103 75.7672 40.5144 78.2625 41 81 z "
     id="path26"
     sodipodi:nodetypes="cccccc"
     transform="translate(-4.4112,-18.38)" />
  <path
     style="fill:#ffffff; stroke:none"
     d="M26 80L27 80C29.6561 78.1904 30.6925 78.8741 33 81C34.5622 77.7566 39.5923 64.3856 32.0031 64.8318C26.1114 65.1782 26.0342 75.9205 26 80z"
     id="path27"
     transform="translate(-4.4112,-18.38)" />
  <path
     style="fill:#e6b5c7;stroke:none;fill-opacity:1;"
     d="M 183.613 124.373 C 185.827 126.831 186.41 129.163 187.244 132.373 L 207.143 135.976 C 207.8 134.422 209.95 129.645 207.997 127.502 C 204.426 125.079 191.072 125.165 183.613 124.373 z "
     id="path28"
     sodipodi:nodetypes="ccccc"
     transform="translate(-4.4112,-18.38)" />
  <path
     style="fill:#e6b5c7;stroke:none;fill-opacity:1;"
     d="M 31.6732 131.98 C 30.1029 134.914 32.2698 136.411 33.3546 139.783 C 41.4349 138.864 48.7003 137.231 54 137 L 50.7324 129.327 C 43.3991 129.993 34.1052 129.026 31.6732 131.98 z "
     id="path29"
     sodipodi:nodetypes="ccccc"
     transform="translate(-4.4112,-18.38)" />
  <path
     style="fill:#e6b5c7;stroke:none;fill-opacity:1;"
     d="M 187.62 135.498 C 188.841 141.122 184.545 148 178.742 153.247 C 187.658 155.938 203.599 159.507 207.248 158.311 C 210.837 156.763 215.177 145.432 213.247 142.004 C 210.307 138.999 195.954 137.123 187.62 135.498 z "
     id="path30"
     sodipodi:nodetypes="ccccc"
     transform="translate(-4.4112,-18.38)" />
  <path
     style="fill:#e6b5c7;stroke:none;fill-opacity:1;"
     d="M 27.6535 145.654 C 26.0028 149.357 28.0372 159.115 33.023 161.933 C 43.4326 163.018 55.3523 158.691 65.7618 156 C 59.9848 151.836 55.5002 147.395 55 140.327 C 45.6667 141.993 33.0658 141.7 27.6535 145.654 z "
     id="path31"
     sodipodi:nodetypes="ccccc"
     transform="translate(-4.4112,-18.38)" />
</svg>
